<svg id="svg" version="1.1" xmlns="http://www.w3.org/2000/svg" xmlns:xlink="http://www.w3.org/1999/xlink" width="400" height="400" viewBox="0, 0, 400,400"><g id="svgg"><path id="path0" d="M125.768 36.942 C 124.302 38.439,123.049 40.382,123.354 40.687 C 123.474 40.807,123.356 41.287,123.092 41.753 C 122.828 42.219,122.603 43.590,122.593 44.800 C 122.581 46.206,122.411 46.968,122.124 46.912 C 121.822 46.853,121.707 47.620,121.776 49.245 C 121.833 50.597,121.684 51.871,121.439 52.133 C 121.197 52.390,120.945 53.680,120.877 55.000 C 120.810 56.320,120.592 57.458,120.393 57.528 C 120.194 57.599,120.136 58.181,120.264 58.822 C 120.435 59.673,120.325 60.054,119.856 60.234 C 119.348 60.429,119.304 60.647,119.644 61.283 C 119.941 61.838,119.946 62.214,119.659 62.501 C 119.430 62.730,119.340 63.401,119.459 63.993 C 119.584 64.622,119.451 65.304,119.137 65.635 C 118.799 65.990,118.628 67.013,118.674 68.390 C 118.715 69.595,118.559 70.808,118.328 71.087 C 118.097 71.365,117.910 72.540,117.912 73.697 C 117.915 74.853,117.746 76.010,117.536 76.267 C 117.327 76.524,117.140 77.694,117.121 78.867 C 117.102 80.040,116.927 81.205,116.731 81.455 C 116.536 81.705,116.350 82.938,116.317 84.195 C 116.283 85.486,116.058 86.556,115.800 86.655 C 115.540 86.755,115.418 87.344,115.517 88.019 C 115.613 88.673,115.482 89.460,115.227 89.768 C 114.907 90.153,114.893 90.410,115.182 90.589 C 115.471 90.767,115.452 91.123,115.124 91.724 C 114.860 92.206,114.693 93.095,114.753 93.700 C 114.812 94.305,114.686 94.800,114.473 94.800 C 114.260 94.800,114.070 95.912,114.051 97.272 C 114.032 98.631,113.833 99.927,113.608 100.152 C 113.384 100.376,113.200 101.679,113.200 103.047 C 113.200 104.474,113.016 105.595,112.767 105.678 C 112.517 105.761,112.339 106.871,112.346 108.311 C 112.353 109.680,112.188 110.800,111.979 110.800 C 111.771 110.800,111.600 111.417,111.600 112.171 C 111.600 113.140,111.395 113.595,110.900 113.724 C 110.233 113.898,110.233 113.909,110.900 113.954 C 111.650 114.003,111.943 116.000,111.200 116.000 C 110.980 116.000,110.800 116.619,110.800 117.376 C 110.800 118.133,110.611 118.869,110.381 119.012 C 110.094 119.189,110.109 119.450,110.430 119.836 C 110.762 120.237,110.775 120.548,110.473 120.912 C 110.240 121.193,110.065 122.020,110.086 122.750 C 110.107 123.479,109.961 124.194,109.762 124.338 C 109.563 124.482,109.345 125.680,109.277 127.000 C 109.210 128.320,108.985 129.460,108.777 129.533 C 108.570 129.607,108.400 130.822,108.400 132.233 C 108.400 133.678,108.225 134.800,108.000 134.800 C 107.774 134.800,107.600 135.933,107.600 137.400 C 107.600 138.830,107.439 140.000,107.243 140.000 C 107.047 140.000,106.870 141.112,106.851 142.471 C 106.832 143.831,106.655 145.046,106.457 145.171 C 106.260 145.297,106.081 146.030,106.060 146.800 C 106.039 147.570,106.009 148.695,105.994 149.300 C 105.980 149.905,105.781 150.400,105.552 150.400 C 105.302 150.400,105.237 150.859,105.389 151.551 C 105.553 152.295,105.445 152.898,105.084 153.259 C 104.704 153.639,104.563 154.553,104.642 156.129 C 104.725 157.766,104.604 158.500,104.229 158.644 C 103.854 158.788,103.729 159.541,103.803 161.213 C 103.866 162.650,103.724 163.731,103.441 163.966 C 103.171 164.190,103.002 165.289,103.041 166.566 C 103.082 167.919,102.914 168.939,102.610 169.192 C 102.336 169.419,102.194 170.033,102.294 170.556 C 102.394 171.078,102.285 171.624,102.053 171.767 C 101.771 171.941,101.757 172.361,102.011 173.028 C 102.291 173.765,102.253 174.082,101.867 174.230 C 101.530 174.359,101.409 174.877,101.526 175.681 C 101.658 176.579,101.504 177.081,100.979 177.465 C 100.576 177.759,100.461 178.000,100.724 178.000 C 101.279 178.000,101.372 179.447,100.838 179.777 C 100.638 179.900,100.572 180.372,100.691 180.827 C 100.810 181.281,100.679 182.079,100.400 182.599 C 100.122 183.120,100.000 183.822,100.129 184.160 C 100.259 184.498,100.217 184.866,100.036 184.978 C 99.855 185.089,99.794 185.636,99.901 186.193 C 100.007 186.749,99.878 187.465,99.614 187.783 C 99.351 188.101,99.127 189.405,99.117 190.680 C 99.107 191.956,98.937 193.104,98.739 193.230 C 98.540 193.357,98.353 194.527,98.323 195.830 C 98.293 197.134,98.108 198.307,97.913 198.437 C 97.717 198.567,97.541 199.782,97.522 201.137 C 97.502 202.492,97.332 203.600,97.143 203.600 C 96.955 203.600,96.800 204.152,96.800 204.826 C 96.800 205.501,96.614 206.401,96.386 206.826 C 96.100 207.360,96.100 207.600,96.386 207.600 C 96.614 207.600,96.800 207.870,96.800 208.200 C 96.800 208.530,96.620 208.800,96.400 208.800 C 96.180 208.800,96.000 209.520,96.000 210.400 C 96.000 211.572,95.836 212.000,95.386 212.000 C 94.936 212.000,94.864 212.187,95.119 212.700 C 95.545 213.562,95.255 217.200,94.760 217.200 C 94.562 217.200,94.400 218.460,94.400 220.000 C 94.400 221.600,94.229 222.800,94.000 222.800 C 93.780 222.800,93.600 223.325,93.600 223.967 C 93.600 224.608,93.375 225.224,93.100 225.335 C 92.700 225.496,92.700 225.543,93.100 225.568 C 93.691 225.606,93.790 228.000,93.200 228.000 C 92.980 228.000,92.800 228.615,92.800 229.367 C 92.800 230.118,92.575 230.824,92.300 230.935 C 91.900 231.096,91.900 231.143,92.300 231.168 C 92.889 231.206,92.982 233.072,92.404 233.267 C 92.186 233.340,91.975 234.390,91.934 235.600 C 91.893 236.810,91.736 237.980,91.585 238.200 C 91.433 238.420,91.315 239.220,91.321 239.978 C 91.328 240.736,91.163 241.412,90.955 241.482 C 90.746 241.551,90.606 242.610,90.643 243.834 C 90.689 245.366,90.544 246.123,90.179 246.263 C 89.802 246.408,89.678 247.159,89.752 248.844 C 89.816 250.307,89.674 251.372,89.384 251.614 C 89.103 251.846,88.942 252.917,88.989 254.241 C 89.031 255.470,88.864 256.684,88.617 256.938 C 88.370 257.192,88.175 258.377,88.184 259.571 C 88.193 260.765,88.009 261.935,87.775 262.171 C 87.541 262.407,87.350 263.050,87.352 263.600 C 87.358 266.482,87.176 267.633,86.757 267.374 C 86.449 267.183,86.399 267.484,86.593 268.366 C 86.767 269.158,86.690 269.851,86.388 270.214 C 86.123 270.534,86.000 271.157,86.115 271.597 C 86.231 272.038,86.174 272.493,85.989 272.607 C 85.804 272.721,85.754 273.438,85.878 274.200 C 86.037 275.185,85.939 275.649,85.537 275.803 C 85.113 275.966,85.001 276.665,85.090 278.610 C 85.160 280.164,85.046 281.200,84.804 281.200 C 84.582 281.200,84.406 281.515,84.413 281.900 C 84.433 283.007,85.271 281.709,88.484 275.600 C 90.045 272.630,92.131 268.670,93.118 266.800 C 95.042 263.155,97.195 259.045,101.186 251.400 C 102.564 248.760,104.459 245.160,105.395 243.400 C 109.873 234.989,110.886 233.068,113.202 228.600 C 114.570 225.960,116.590 222.090,117.692 220.000 C 124.637 206.819,128.589 199.279,130.166 196.200 C 130.842 194.880,131.486 193.710,131.598 193.600 C 131.709 193.490,132.478 192.050,133.306 190.400 C 135.068 186.891,139.348 178.693,142.390 173.000 C 143.566 170.800,145.464 167.200,146.607 165.000 C 149.074 160.256,151.994 154.693,154.482 150.000 C 155.473 148.130,157.461 144.350,158.900 141.600 C 162.002 135.671,164.848 130.243,168.056 124.140 C 169.345 121.687,170.400 119.248,170.400 118.720 C 170.400 117.634,169.555 115.608,169.100 115.603 C 168.935 115.601,168.800 115.355,168.800 115.056 C 168.800 114.527,166.429 109.601,165.982 109.200 C 165.630 108.885,164.400 106.126,164.400 105.652 C 164.400 105.417,164.012 104.544,163.538 103.712 C 161.585 100.285,160.400 97.886,160.400 97.359 C 160.400 97.052,160.220 96.800,160.000 96.800 C 159.780 96.800,159.600 96.440,159.600 96.000 C 159.600 95.560,159.420 95.200,159.200 95.200 C 158.980 95.200,158.800 94.928,158.800 94.595 C 158.800 94.031,158.067 92.456,157.592 92.000 C 157.477 91.890,156.782 90.540,156.046 89.000 C 155.311 87.460,154.347 85.480,153.906 84.600 C 146.614 70.070,142.400 61.398,142.400 60.922 C 142.400 60.635,142.220 60.400,142.000 60.400 C 141.780 60.400,141.600 60.055,141.600 59.633 C 141.600 59.212,141.464 58.807,141.298 58.733 C 141.132 58.660,140.393 57.340,139.656 55.800 C 138.919 54.260,138.119 52.640,137.878 52.200 C 136.582 49.834,133.201 42.955,133.201 42.684 C 133.198 41.681,128.570 36.400,127.693 36.400 C 127.396 36.400,127.264 36.220,127.400 36.000 C 127.908 35.178,126.958 35.727,125.768 36.942 M191.600 80.800 C 191.600 81.020,191.218 81.200,190.752 81.200 C 188.903 81.200,183.600 88.765,183.600 91.402 C 183.600 91.731,183.420 92.000,183.200 92.000 C 182.980 92.000,182.800 92.360,182.800 92.800 C 182.800 93.240,182.659 93.600,182.487 93.600 C 182.315 93.600,181.935 94.410,181.643 95.400 C 181.351 96.390,180.952 97.200,180.756 97.200 C 180.560 97.200,180.400 97.549,180.400 97.976 C 180.400 98.403,180.220 98.864,180.000 99.000 C 179.780 99.136,179.600 99.597,179.600 100.024 C 179.600 100.451,179.420 100.800,179.200 100.800 C 178.980 100.800,178.800 101.160,178.800 101.600 C 178.800 102.040,178.620 102.400,178.400 102.400 C 178.180 102.400,178.000 102.724,178.000 103.120 C 178.000 104.014,177.106 105.993,176.700 105.997 C 176.535 105.999,176.400 106.349,176.400 106.776 C 176.400 107.203,176.220 107.664,176.000 107.800 C 175.780 107.936,175.600 108.397,175.600 108.824 C 175.600 109.251,175.420 109.600,175.200 109.600 C 174.980 109.600,174.800 109.872,174.800 110.205 C 174.800 110.538,174.641 111.123,174.447 111.505 C 174.086 112.213,173.969 112.480,172.238 116.495 L 171.249 118.790 174.072 124.495 C 175.624 127.633,181.373 139.237,186.847 150.281 C 192.321 161.326,196.800 170.596,196.800 170.881 C 196.800 171.166,171.473 196.727,140.517 227.683 C 109.561 258.639,84.321 284.054,84.427 284.161 C 84.534 284.267,109.729 259.209,140.416 228.477 C 201.267 167.538,228.076 140.536,227.300 140.968 C 226.972 141.152,226.800 140.965,226.800 140.424 C 226.800 139.971,226.620 139.600,226.400 139.600 C 226.180 139.600,226.000 139.255,226.000 138.833 C 226.000 138.412,225.863 138.007,225.695 137.933 C 225.286 137.755,221.194 129.535,221.197 128.900 C 221.199 128.625,221.020 128.400,220.800 128.400 C 220.580 128.400,220.400 128.055,220.400 127.633 C 220.400 127.212,220.263 126.807,220.096 126.733 C 219.721 126.569,213.600 114.221,213.600 113.628 C 213.600 113.393,213.420 113.200,213.200 113.200 C 212.980 113.200,212.800 112.855,212.800 112.433 C 212.800 112.012,212.665 111.607,212.500 111.533 C 212.119 111.364,210.400 107.863,210.400 107.256 C 210.400 107.005,210.265 106.799,210.100 106.797 C 209.741 106.793,208.800 104.856,208.800 104.120 C 208.800 103.834,208.620 103.600,208.400 103.600 C 208.180 103.600,208.000 103.240,208.000 102.800 C 208.000 102.360,207.820 102.000,207.600 102.000 C 207.380 102.000,207.200 101.640,207.200 101.200 C 207.200 100.760,207.020 100.400,206.800 100.400 C 206.580 100.400,206.400 100.040,206.400 99.600 C 206.400 99.160,206.264 98.800,206.098 98.800 C 205.931 98.800,205.557 98.215,205.265 97.500 C 204.749 96.235,203.934 94.601,200.727 88.400 C 198.247 83.605,196.249 81.200,194.745 81.200 C 194.361 81.200,193.936 81.020,193.800 80.800 C 193.664 80.580,193.113 80.400,192.576 80.400 C 192.039 80.400,191.600 80.580,191.600 80.800 M259.775 108.500 L 258.600 109.800 259.900 108.625 C 260.615 107.979,261.200 107.394,261.200 107.325 C 261.200 107.016,260.870 107.288,259.775 108.500 M238.575 129.700 L 237.400 131.000 238.700 129.825 C 239.415 129.179,240.000 128.594,240.000 128.525 C 240.000 128.216,239.670 128.488,238.575 129.700 " stroke="none" fill="#fb9c04" fill-rule="evenodd"></path><path id="path1" d="M120.329 51.430 C 120.169 52.040,120.322 52.254,120.954 52.302 C 121.414 52.336,121.594 52.238,121.355 52.082 C 121.116 51.927,120.835 51.535,120.730 51.210 C 120.590 50.775,120.485 50.832,120.329 51.430 M115.600 81.262 C 115.600 81.840,116.319 81.980,116.733 81.481 C 117.051 81.098,116.963 80.971,116.378 80.971 C 115.950 80.971,115.600 81.102,115.600 81.262 M200.103 87.200 C 200.193 87.530,200.652 87.820,201.123 87.845 C 201.594 87.870,201.881 87.732,201.762 87.538 C 201.642 87.345,201.357 87.303,201.128 87.445 C 200.898 87.586,200.537 87.454,200.325 87.151 C 200.008 86.698,199.968 86.707,200.103 87.200 M183.200 91.000 C 183.200 91.550,183.269 92.000,183.353 92.000 C 183.438 92.000,183.593 91.550,183.698 91.000 C 183.803 90.450,183.734 90.000,183.545 90.000 C 183.355 90.000,183.200 90.450,183.200 91.000 M164.686 106.806 C 164.995 107.990,165.517 108.145,165.296 106.988 C 165.192 106.445,164.965 106.000,164.791 106.000 C 164.617 106.000,164.570 106.363,164.686 106.806 M111.232 108.500 C 111.249 108.995,111.354 109.174,111.466 108.898 C 111.577 108.621,111.878 108.521,112.134 108.674 C 112.390 108.828,112.353 108.649,112.051 108.277 C 111.328 107.386,111.194 107.422,111.232 108.500 M110.806 110.100 C 110.802 110.570,111.095 110.790,111.700 110.768 C 112.301 110.747,112.401 110.661,112.000 110.508 C 111.670 110.383,111.268 110.082,111.106 109.840 C 110.925 109.569,110.810 109.668,110.806 110.100 M167.840 112.760 C 168.180 113.442,168.519 114.000,168.592 114.000 C 168.918 114.000,168.259 112.381,167.767 111.973 C 167.355 111.630,167.372 111.822,167.840 112.760 M168.277 123.529 C 167.000 126.098,165.143 129.730,164.151 131.600 C 163.159 133.470,160.984 137.610,159.319 140.800 C 157.654 143.990,155.478 148.130,154.485 150.000 C 152.120 154.453,149.187 160.038,146.607 165.000 C 145.464 167.200,143.566 170.800,142.390 173.000 C 139.348 178.693,135.068 186.891,133.306 190.400 C 132.478 192.050,131.709 193.490,131.598 193.600 C 131.486 193.710,130.842 194.880,130.166 196.200 C 128.589 199.279,124.637 206.819,117.692 220.000 C 116.590 222.090,114.570 225.960,113.202 228.600 C 110.886 233.068,109.873 234.989,105.395 243.400 C 104.459 245.160,102.564 248.760,101.186 251.400 C 98.012 257.480,95.475 262.325,92.807 267.400 C 91.651 269.600,89.617 273.470,88.289 276.000 C 86.960 278.530,85.529 281.095,85.109 281.700 C 84.560 282.492,84.493 282.800,84.873 282.800 C 85.558 282.800,196.800 171.564,196.800 170.880 C 196.800 169.861,171.527 119.090,170.948 118.945 C 170.756 118.897,169.555 120.960,168.277 123.529 M86.667 261.467 C 86.180 261.953,86.389 262.229,87.295 262.297 C 87.787 262.334,88.012 262.235,87.795 262.078 C 87.578 261.920,87.295 261.658,87.167 261.495 C 87.038 261.333,86.813 261.320,86.667 261.467 M86.900 264.665 C 86.324 264.897,86.232 265.849,86.754 266.172 C 86.949 266.292,87.194 265.943,87.299 265.395 C 87.403 264.848,87.469 264.414,87.445 264.432 C 87.420 264.449,87.175 264.554,86.900 264.665 M84.500 280.688 C 84.225 280.786,84.000 281.135,84.000 281.462 C 84.000 281.967,84.098 281.959,84.648 281.410 C 85.352 280.706,85.290 280.406,84.500 280.688 " stroke="none" fill="#fa7d04" fill-rule="evenodd"></path><path id="path2" d="M268.400 101.555 C 265.626 102.854,264.158 104.270,231.013 137.599 C 212.526 156.189,172.113 196.726,141.206 227.682 C 110.299 258.637,84.958 284.125,84.893 284.321 C 84.790 284.630,87.660 286.800,88.171 286.800 C 88.275 286.800,89.160 287.340,90.138 288.000 C 91.116 288.660,92.115 289.200,92.358 289.200 C 92.601 289.200,92.800 289.346,92.800 289.525 C 92.800 289.704,93.430 290.098,94.200 290.400 C 94.970 290.702,95.600 291.096,95.600 291.275 C 95.600 291.454,95.870 291.600,96.200 291.600 C 96.530 291.600,96.800 291.780,96.800 292.000 C 96.800 292.220,97.160 292.400,97.600 292.400 C 98.040 292.400,98.400 292.580,98.400 292.800 C 98.400 293.020,98.670 293.200,99.000 293.200 C 99.330 293.200,99.600 293.359,99.600 293.553 C 99.600 293.748,99.915 294.013,100.300 294.142 C 100.685 294.272,101.900 294.916,103.000 295.573 C 104.100 296.230,105.270 296.897,105.600 297.055 C 105.930 297.213,106.290 297.448,106.400 297.579 C 106.510 297.709,107.050 298.046,107.600 298.326 C 108.150 298.606,109.320 299.251,110.200 299.759 C 112.548 301.114,114.604 302.289,116.300 303.247 C 117.125 303.713,118.278 304.433,118.862 304.847 C 119.446 305.261,120.121 305.600,120.362 305.600 C 120.603 305.600,120.800 305.780,120.800 306.000 C 120.800 306.220,121.070 306.400,121.400 306.400 C 121.730 306.400,122.000 306.546,122.000 306.725 C 122.000 306.904,122.630 307.298,123.400 307.600 C 124.170 307.902,124.800 308.296,124.800 308.475 C 124.800 308.654,125.160 308.800,125.600 308.800 C 126.040 308.800,126.400 308.980,126.400 309.200 C 126.400 309.420,126.670 309.600,127.000 309.600 C 127.330 309.600,127.600 309.780,127.600 310.000 C 127.600 310.220,127.870 310.400,128.200 310.400 C 128.530 310.400,128.800 310.559,128.800 310.753 C 128.800 310.948,129.115 311.210,129.500 311.336 C 129.885 311.462,131.010 312.054,132.000 312.651 C 132.990 313.248,134.520 314.151,135.400 314.656 C 136.280 315.162,137.630 315.948,138.400 316.404 C 142.530 318.845,144.673 320.041,145.300 320.255 C 145.685 320.386,146.000 320.652,146.000 320.847 C 146.000 321.041,146.270 321.200,146.600 321.200 C 146.930 321.200,147.200 321.346,147.200 321.525 C 147.200 321.704,147.830 322.098,148.600 322.400 C 149.370 322.702,150.000 323.096,150.000 323.275 C 150.000 323.454,150.270 323.600,150.600 323.600 C 150.930 323.600,151.200 323.746,151.200 323.925 C 151.200 324.104,151.830 324.498,152.600 324.800 C 153.370 325.102,154.000 325.452,154.000 325.577 C 154.000 325.702,154.585 326.059,155.300 326.370 C 156.015 326.681,156.690 327.040,156.800 327.168 C 157.032 327.437,158.259 328.156,160.800 329.512 C 161.790 330.040,162.884 330.726,163.231 331.036 C 163.579 331.346,164.074 331.600,164.331 331.600 C 164.589 331.600,165.121 331.915,165.512 332.300 C 165.904 332.685,166.849 333.320,167.612 333.712 C 169.898 334.884,172.187 336.185,172.400 336.432 C 172.510 336.560,173.185 336.919,173.900 337.230 C 174.615 337.541,175.200 337.931,175.200 338.098 C 175.200 338.264,175.470 338.400,175.800 338.400 C 176.130 338.400,176.400 338.580,176.400 338.800 C 176.400 339.020,176.760 339.200,177.200 339.200 C 177.640 339.200,178.000 339.352,178.000 339.537 C 178.000 339.723,178.855 340.308,179.900 340.837 C 180.945 341.367,181.860 341.935,181.933 342.100 C 182.007 342.265,182.277 342.404,182.533 342.409 C 182.790 342.414,183.450 342.770,184.000 343.200 C 184.550 343.630,185.585 343.986,186.300 343.991 C 187.015 343.996,187.600 344.194,187.600 344.430 C 187.600 344.689,188.305 344.817,189.365 344.752 C 190.335 344.692,191.393 344.862,191.715 345.130 C 192.437 345.728,198.083 345.685,198.469 345.078 C 198.616 344.845,199.636 344.695,200.734 344.745 C 201.832 344.795,202.847 344.648,202.989 344.418 C 203.131 344.188,203.670 344.000,204.186 344.000 C 205.011 344.000,208.258 342.578,208.800 341.979 C 208.910 341.858,209.650 341.456,210.445 341.087 C 211.240 340.717,212.117 340.141,212.394 339.807 C 212.671 339.473,213.073 339.200,213.287 339.200 C 213.501 339.200,214.154 338.861,214.738 338.447 C 215.322 338.033,216.475 337.313,217.300 336.847 C 218.125 336.381,219.475 335.619,220.300 335.154 C 221.125 334.688,221.890 334.193,222.000 334.054 C 222.110 333.914,223.190 333.275,224.400 332.634 C 225.610 331.993,227.029 331.138,227.554 330.734 C 228.079 330.330,228.754 330.000,229.054 330.000 C 229.354 330.000,229.600 329.820,229.600 329.600 C 229.600 329.380,229.870 329.200,230.200 329.200 C 230.530 329.200,230.800 329.041,230.800 328.847 C 230.800 328.652,231.115 328.390,231.500 328.264 C 232.213 328.031,234.994 326.443,236.800 325.238 C 237.350 324.871,238.295 324.322,238.900 324.018 C 239.505 323.714,240.000 323.315,240.000 323.132 C 240.000 322.950,240.360 322.800,240.800 322.800 C 241.240 322.800,241.600 322.620,241.600 322.400 C 241.600 322.180,241.799 322.000,242.042 322.000 C 242.285 322.000,243.284 321.460,244.262 320.800 C 245.240 320.140,246.134 319.600,246.248 319.600 C 246.362 319.600,247.208 319.098,248.128 318.485 C 249.048 317.872,250.520 317.017,251.400 316.585 C 252.280 316.153,253.090 315.691,253.200 315.558 C 253.553 315.131,258.868 312.000,259.241 312.000 C 259.438 312.000,259.600 311.820,259.600 311.600 C 259.600 311.380,259.870 311.200,260.200 311.200 C 260.530 311.200,260.800 311.020,260.800 310.800 C 260.800 310.580,261.160 310.400,261.600 310.400 C 262.040 310.400,262.400 310.253,262.400 310.074 C 262.400 309.895,263.075 309.383,263.900 308.936 C 266.799 307.365,268.602 306.305,268.800 306.054 C 269.106 305.665,271.313 304.378,272.100 304.129 C 272.485 304.007,272.800 303.748,272.800 303.553 C 272.800 303.359,272.974 303.200,273.188 303.200 C 273.401 303.200,275.876 301.826,278.688 300.146 C 281.499 298.467,284.430 296.735,285.200 296.299 C 285.970 295.863,287.078 295.167,287.662 294.753 C 288.246 294.339,288.921 294.000,289.162 294.000 C 289.403 294.000,289.600 293.841,289.600 293.647 C 289.600 293.452,289.915 293.193,290.300 293.071 C 290.985 292.854,293.204 291.596,293.600 291.200 C 293.826 290.974,295.099 290.236,297.300 289.056 C 298.125 288.614,298.800 288.139,298.800 288.000 C 298.800 287.862,299.430 287.502,300.200 287.200 C 300.970 286.898,301.600 286.504,301.600 286.325 C 301.600 286.146,301.768 286.000,301.972 286.000 C 303.617 286.000,307.191 282.921,307.196 281.500 C 307.198 280.675,307.020 280.000,306.800 280.000 C 306.578 280.000,306.400 278.933,306.400 277.600 C 306.400 276.278,306.222 275.200,306.003 275.200 C 305.784 275.200,305.607 274.525,305.609 273.700 C 305.612 271.896,305.451 270.839,305.026 269.893 C 304.852 269.505,304.793 268.749,304.895 268.213 C 305.014 267.593,304.869 267.159,304.496 267.015 C 303.999 266.825,303.992 266.691,304.455 266.130 C 304.881 265.614,304.891 265.433,304.500 265.302 C 304.225 265.209,304.000 264.533,304.000 263.800 C 304.000 263.067,303.775 262.385,303.500 262.286 C 303.103 262.142,303.101 261.933,303.492 261.271 C 303.836 260.688,303.855 260.357,303.554 260.172 C 303.318 260.026,303.209 259.463,303.313 258.922 C 303.422 258.350,303.292 257.857,303.003 257.746 C 302.693 257.627,302.497 256.726,302.485 255.358 C 302.474 254.149,302.282 252.940,302.057 252.669 C 301.833 252.399,301.689 251.242,301.736 250.098 C 301.793 248.739,301.651 247.952,301.326 247.827 C 300.994 247.700,300.861 246.899,300.928 245.428 C 301.000 243.834,300.872 243.160,300.468 243.005 C 300.103 242.865,299.980 242.419,300.113 241.723 C 300.225 241.136,300.110 240.305,299.858 239.876 C 299.507 239.277,299.516 239.054,299.896 238.916 C 300.265 238.782,300.229 238.572,299.760 238.102 C 299.349 237.692,299.204 237.082,299.346 236.371 C 299.498 235.612,299.380 235.201,298.966 235.042 C 298.503 234.865,298.462 234.632,298.784 234.030 C 299.080 233.477,299.073 233.169,298.761 232.976 C 298.513 232.823,298.418 232.210,298.544 231.580 C 298.677 230.916,298.585 230.395,298.320 230.307 C 298.058 230.219,297.882 229.252,297.895 227.979 C 297.907 226.780,297.726 225.680,297.491 225.534 C 297.256 225.388,297.080 224.277,297.101 223.065 C 297.125 221.605,296.963 220.795,296.621 220.663 C 296.270 220.529,296.129 219.747,296.183 218.224 C 296.232 216.801,296.074 215.827,295.748 215.556 C 295.430 215.293,295.323 214.685,295.467 213.965 C 295.614 213.231,295.534 212.800,295.250 212.800 C 295.002 212.800,294.800 212.530,294.800 212.200 C 294.800 211.870,295.025 211.597,295.300 211.594 C 295.652 211.590,295.633 211.482,295.234 211.229 C 294.897 211.016,294.690 210.289,294.722 209.436 C 294.751 208.646,294.601 208.000,294.388 208.000 C 294.175 208.000,294.000 206.920,294.000 205.600 C 294.000 204.267,293.822 203.200,293.600 203.200 C 293.378 203.200,293.200 202.133,293.200 200.800 C 293.200 199.467,293.022 198.400,292.800 198.400 C 292.578 198.400,292.400 197.344,292.400 196.033 C 292.400 194.732,292.216 193.605,291.992 193.531 C 291.768 193.456,291.568 192.271,291.549 190.897 C 291.530 189.524,291.353 188.400,291.157 188.400 C 290.961 188.400,290.800 187.785,290.800 187.033 C 290.800 186.282,290.575 185.591,290.300 185.498 C 289.919 185.370,289.943 185.156,290.400 184.600 C 290.857 184.044,290.881 183.830,290.500 183.702 C 290.225 183.609,290.000 182.918,290.000 182.167 C 290.000 181.415,289.851 180.800,289.668 180.800 C 289.134 180.800,289.182 176.659,289.721 176.317 C 290.025 176.123,289.882 176.010,289.329 176.006 C 288.537 176.001,288.457 175.793,288.457 173.741 C 288.457 172.499,288.282 171.374,288.068 171.241 C 287.853 171.109,287.671 170.041,287.662 168.868 C 287.653 167.696,287.472 166.526,287.260 166.268 C 287.048 166.011,286.868 164.827,286.860 163.637 C 286.851 162.401,286.639 161.348,286.364 161.178 C 286.066 160.993,285.976 160.422,286.126 159.669 C 286.282 158.889,286.196 158.394,285.884 158.280 C 285.508 158.144,285.513 157.914,285.903 157.252 C 286.330 156.529,286.311 156.400,285.773 156.400 C 285.314 156.400,285.173 156.083,285.260 155.250 C 285.327 154.618,285.191 153.853,284.960 153.550 C 284.728 153.248,284.552 152.057,284.569 150.905 C 284.586 149.752,284.412 148.737,284.181 148.648 C 283.951 148.560,283.773 147.481,283.786 146.250 C 283.800 144.913,283.624 143.941,283.350 143.836 C 283.068 143.728,282.916 142.800,282.957 141.439 C 283.001 139.973,282.853 139.152,282.521 139.025 C 282.179 138.894,282.066 138.165,282.165 136.744 C 282.268 135.273,282.136 134.479,281.719 134.062 C 281.344 133.687,281.208 133.062,281.347 132.363 C 281.476 131.722,281.383 131.194,281.127 131.109 C 280.806 131.002,280.808 130.732,281.135 130.121 C 281.497 129.444,281.463 129.233,280.961 129.040 C 280.497 128.862,280.404 128.492,280.600 127.600 C 280.766 126.845,280.703 126.400,280.432 126.400 C 280.194 126.400,280.000 126.040,280.000 125.600 C 280.000 125.160,280.193 124.800,280.429 124.800 C 280.664 124.800,280.574 124.517,280.229 124.171 C 279.487 123.430,279.498 123.519,279.983 122.245 C 280.293 121.429,280.255 121.281,279.783 121.462 C 279.312 121.643,279.200 121.218,279.200 119.243 C 279.200 117.881,279.023 116.800,278.800 116.800 C 278.578 116.800,278.400 115.744,278.400 114.433 C 278.400 113.036,278.216 112.005,277.950 111.917 C 277.687 111.829,277.500 110.819,277.500 109.483 C 277.500 108.228,277.343 107.200,277.150 107.200 C 276.957 107.200,276.800 106.951,276.800 106.646 C 276.800 103.062,271.735 99.992,268.400 101.555 " stroke="none" fill="#fbcb04" fill-rule="evenodd"></path><path id="path3" d="M268.800 100.800 C 268.800 101.020,268.350 101.200,267.800 101.200 C 267.250 101.200,266.800 101.380,266.800 101.600 C 266.800 101.820,266.530 102.000,266.200 102.000 C 265.870 102.000,265.600 102.180,265.600 102.400 C 265.600 102.620,265.402 102.800,265.160 102.800 C 264.744 102.800,263.721 103.791,261.703 106.151 C 261.209 106.728,260.963 107.200,261.155 107.200 C 261.348 107.200,261.991 106.563,262.584 105.785 C 266.242 100.989,272.060 99.757,275.045 103.145 C 275.557 103.725,275.980 103.967,275.987 103.682 C 276.005 102.968,274.175 101.200,273.418 101.200 C 273.078 101.200,272.800 101.020,272.800 100.800 C 272.800 100.580,271.900 100.400,270.800 100.400 C 269.700 100.400,268.800 100.580,268.800 100.800 M250.938 116.716 C 246.544 121.091,243.532 124.302,244.478 123.600 C 245.450 122.880,256.652 111.600,256.395 111.600 C 256.220 111.600,253.764 113.902,250.938 116.716 M278.400 115.400 C 278.400 116.170,278.580 116.800,278.800 116.800 C 279.020 116.800,279.200 116.170,279.200 115.400 C 279.200 114.630,279.020 114.000,278.800 114.000 C 278.580 114.000,278.400 114.630,278.400 115.400 M279.200 120.200 C 279.200 120.970,279.380 121.600,279.600 121.600 C 279.820 121.600,280.000 120.970,280.000 120.200 C 280.000 119.430,279.820 118.800,279.600 118.800 C 279.380 118.800,279.200 119.430,279.200 120.200 M279.606 123.071 C 279.618 123.684,280.355 124.578,280.626 124.307 C 280.774 124.159,280.604 123.747,280.248 123.390 C 279.891 123.034,279.603 122.891,279.606 123.071 M280.000 125.600 C 280.000 126.040,280.180 126.400,280.400 126.400 C 280.620 126.400,280.800 126.040,280.800 125.600 C 280.800 125.160,280.620 124.800,280.400 124.800 C 280.180 124.800,280.000 125.160,280.000 125.600 M235.355 132.324 C 229.834 137.812,227.503 140.293,228.288 139.846 C 228.556 139.693,231.436 136.860,234.688 133.551 C 237.940 130.241,240.675 127.459,240.767 127.367 C 240.858 127.275,240.838 127.200,240.722 127.200 C 240.605 127.200,238.190 129.506,235.355 132.324 M281.043 130.233 C 280.719 131.078,280.720 131.084,281.338 131.321 C 281.723 131.468,281.823 131.254,281.691 130.563 C 281.475 129.432,281.370 129.379,281.043 130.233 M281.253 132.600 C 281.202 133.606,281.855 134.679,282.267 134.267 C 282.437 134.096,282.378 133.831,282.135 133.678 C 281.892 133.525,281.603 133.040,281.493 132.600 L 281.293 131.800 281.253 132.600 M282.128 137.064 C 282.092 138.014,282.240 138.901,282.457 139.035 C 283.138 139.456,283.341 138.852,282.757 138.145 C 282.324 137.621,282.312 137.432,282.700 137.302 C 283.339 137.086,283.338 136.481,282.698 135.840 C 282.294 135.437,282.182 135.679,282.128 137.064 M282.976 141.569 C 283.018 143.980,283.920 144.984,283.920 142.620 C 283.920 141.839,283.771 141.200,283.588 141.200 C 283.405 141.200,283.184 140.795,283.097 140.300 C 283.009 139.805,282.955 140.376,282.976 141.569 M283.802 146.378 C 283.879 148.828,284.800 149.802,284.800 147.433 C 284.800 146.645,284.633 146.000,284.428 146.000 C 284.223 146.000,283.983 145.595,283.895 145.100 C 283.807 144.605,283.765 145.180,283.802 146.378 M284.446 150.076 C 284.400 151.147,285.015 151.918,285.515 151.418 C 285.659 151.274,285.578 151.031,285.335 150.878 C 285.092 150.725,284.803 150.240,284.693 149.800 C 284.537 149.175,284.483 149.236,284.446 150.076 M284.576 152.438 C 284.427 152.679,284.597 153.168,284.953 153.524 C 285.549 154.121,285.600 154.086,285.600 153.086 C 285.600 151.981,285.067 151.644,284.576 152.438 M285.246 155.300 C 285.213 156.101,285.390 156.398,285.900 156.394 C 286.344 156.390,286.434 156.280,286.146 156.094 C 285.897 155.932,285.603 155.440,285.493 155.000 C 285.339 154.387,285.282 154.457,285.246 155.300 M285.812 157.317 C 285.641 157.712,285.613 158.147,285.751 158.284 C 286.157 158.690,286.484 158.120,286.297 157.331 C 286.132 156.633,286.110 156.632,285.812 157.317 M286.046 160.067 C 286.021 160.653,286.190 161.197,286.422 161.274 C 286.654 161.351,286.851 162.401,286.859 163.607 C 286.868 164.813,287.051 166.014,287.266 166.275 C 287.481 166.537,287.657 167.752,287.657 168.975 C 287.657 170.199,287.824 171.200,288.029 171.200 C 288.233 171.200,288.400 171.740,288.400 172.400 C 288.400 173.288,288.582 173.592,289.100 173.568 C 289.518 173.550,289.599 173.456,289.300 173.335 C 289.025 173.224,288.800 172.529,288.800 171.790 C 288.800 171.052,288.601 170.324,288.357 170.174 C 288.048 169.983,288.078 169.799,288.454 169.567 C 288.884 169.301,288.892 169.132,288.497 168.737 C 288.223 168.463,288.000 167.646,288.000 166.920 C 288.000 166.194,287.844 165.600,287.653 165.600 C 287.462 165.600,287.296 164.585,287.285 163.344 C 287.274 162.103,287.091 160.978,286.879 160.844 C 286.666 160.710,286.403 160.240,286.293 159.800 C 286.135 159.170,286.083 159.227,286.046 160.067 M288.400 175.000 C 288.400 175.554,288.632 176.000,288.920 176.000 C 289.208 176.000,289.440 175.554,289.440 175.000 C 289.440 174.446,289.208 174.000,288.920 174.000 C 288.632 174.000,288.400 174.446,288.400 175.000 M289.319 179.128 C 289.340 179.938,289.601 180.847,289.900 181.150 C 290.357 181.613,290.427 181.412,290.347 179.864 C 290.231 177.620,289.262 176.926,289.319 179.128 M290.199 184.802 C 290.033 185.070,290.074 185.404,290.289 185.545 C 290.504 185.685,290.783 186.070,290.908 186.400 C 291.073 186.833,291.144 186.778,291.162 186.200 C 291.199 185.053,290.590 184.169,290.199 184.802 M291.478 190.777 C 291.596 191.230,291.852 191.600,292.047 191.600 C 292.586 191.600,292.468 190.954,291.831 190.426 C 291.365 190.039,291.302 190.102,291.478 190.777 M292.400 197.000 C 292.400 197.770,292.551 198.400,292.735 198.400 C 292.920 198.400,293.094 197.770,293.123 197.000 C 293.152 196.230,293.001 195.600,292.788 195.600 C 292.575 195.600,292.400 196.230,292.400 197.000 M293.200 201.800 C 293.200 202.570,293.380 203.200,293.600 203.200 C 293.820 203.200,294.000 202.570,294.000 201.800 C 294.000 201.030,293.820 200.400,293.600 200.400 C 293.380 200.400,293.200 201.030,293.200 201.800 M294.000 206.576 C 294.000 207.359,294.180 208.000,294.400 208.000 C 294.620 208.000,294.800 207.471,294.800 206.824 C 294.800 206.177,294.620 205.536,294.400 205.400 C 294.162 205.253,294.000 205.729,294.000 206.576 M294.800 212.200 C 294.800 212.530,294.980 212.800,295.200 212.800 C 295.420 212.800,295.600 212.530,295.600 212.200 C 295.600 211.870,295.420 211.600,295.200 211.600 C 294.980 211.600,294.800 211.870,294.800 212.200 M296.215 217.399 C 296.473 218.638,296.695 219.055,296.943 218.767 C 297.022 218.675,296.834 218.060,296.526 217.400 L 295.966 216.200 296.215 217.399 M296.000 219.748 C 296.000 220.406,296.718 221.015,297.074 220.659 C 297.196 220.538,297.004 220.147,296.648 219.790 C 296.088 219.231,296.000 219.225,296.000 219.748 M297.200 223.400 C 297.200 223.730,297.380 224.000,297.600 224.000 C 297.820 224.000,298.000 223.730,298.000 223.400 C 298.000 223.070,297.820 222.800,297.600 222.800 C 297.380 222.800,297.200 223.070,297.200 223.400 M297.917 228.520 C 297.710 229.606,297.928 230.400,298.433 230.400 C 298.904 230.400,298.915 228.118,298.446 227.828 C 298.251 227.708,298.013 228.019,297.917 228.520 M298.446 231.876 C 298.421 232.358,298.580 232.864,298.801 233.001 C 299.063 233.162,299.068 233.500,298.815 233.972 C 298.432 234.687,298.621 235.200,299.267 235.200 C 299.450 235.200,299.600 234.570,299.600 233.800 C 299.600 233.030,299.433 232.400,299.229 232.400 C 299.025 232.400,298.776 232.085,298.676 231.700 C 298.534 231.159,298.482 231.200,298.446 231.876 M299.253 236.600 C 299.202 237.606,299.855 238.679,300.267 238.267 C 300.437 238.096,300.378 237.831,300.135 237.678 C 299.892 237.525,299.603 237.040,299.493 236.600 L 299.293 235.800 299.253 236.600 M299.600 239.400 C 299.600 239.730,299.780 240.000,300.000 240.000 C 300.220 240.000,300.400 239.730,300.400 239.400 C 300.400 239.070,300.220 238.800,300.000 238.800 C 299.780 238.800,299.600 239.070,299.600 239.400 M300.032 241.876 C 300.014 242.358,300.192 242.871,300.427 243.016 C 300.991 243.365,301.502 242.838,300.948 242.478 C 300.713 242.325,300.417 241.930,300.292 241.600 C 300.136 241.192,300.053 241.280,300.032 241.876 M300.927 245.608 C 300.987 247.353,302.000 249.265,302.000 247.633 C 302.000 247.395,301.820 247.200,301.600 247.200 C 301.065 247.200,301.086 246.105,301.624 245.925 C 301.900 245.833,301.839 245.382,301.451 244.633 C 300.856 243.486,300.854 243.489,300.927 245.608 M301.707 250.200 C 301.707 251.300,301.877 252.416,302.086 252.680 C 302.295 252.945,302.474 254.149,302.485 255.358 C 302.498 256.827,302.685 257.624,303.049 257.763 C 303.457 257.920,303.578 257.576,303.531 256.386 C 303.497 255.514,303.318 254.800,303.134 254.800 C 302.950 254.800,302.797 254.215,302.792 253.500 C 302.788 252.785,302.542 251.300,302.246 250.200 L 301.707 248.200 301.707 250.200 M303.326 259.169 C 303.367 259.701,303.670 260.210,304.000 260.299 C 304.396 260.406,304.446 260.349,304.146 260.130 C 303.897 259.949,303.593 259.440,303.472 259.000 C 303.299 258.369,303.268 258.405,303.326 259.169 M303.315 261.476 C 303.171 261.853,303.265 262.222,303.528 262.309 C 303.788 262.396,304.000 263.082,304.000 263.833 C 304.000 264.880,304.164 265.193,304.700 265.168 C 305.118 265.150,305.199 265.056,304.900 264.935 C 304.595 264.812,304.400 263.966,304.400 262.767 C 304.400 260.832,303.825 260.148,303.315 261.476 M304.198 266.403 C 304.061 266.624,304.204 266.903,304.515 267.023 C 304.869 267.159,305.012 267.605,304.895 268.213 C 304.793 268.749,304.852 269.505,305.026 269.893 C 305.451 270.839,305.612 271.896,305.609 273.700 C 305.607 274.525,305.771 275.200,305.974 275.200 C 306.176 275.200,306.424 275.515,306.524 275.900 C 306.637 276.331,306.725 276.177,306.754 275.500 C 306.779 274.895,306.652 274.400,306.471 274.400 C 306.290 274.400,306.114 273.379,306.082 272.130 C 306.049 270.882,305.821 269.737,305.575 269.585 C 305.330 269.433,305.165 268.879,305.209 268.354 C 305.389 266.200,304.903 265.262,304.198 266.403 M306.400 278.334 C 306.400 279.418,306.602 279.992,307.045 280.162 C 307.541 280.352,307.620 280.247,307.390 279.705 C 307.226 279.317,307.113 278.604,307.140 278.120 C 307.166 277.636,307.011 277.130,306.794 276.996 C 306.561 276.852,306.400 277.398,306.400 278.334 M307.200 282.316 C 307.200 283.010,302.931 286.000,301.940 286.000 C 301.753 286.000,301.600 286.158,301.600 286.351 C 301.600 286.545,301.015 286.940,300.300 287.229 C 299.585 287.518,298.910 287.879,298.800 288.030 C 298.523 288.413,295.153 290.385,294.300 290.664 C 293.915 290.790,293.600 291.052,293.600 291.247 C 293.600 291.725,294.693 291.697,294.993 291.211 C 295.126 290.997,295.901 290.506,296.717 290.120 C 297.533 289.734,299.084 288.836,300.165 288.126 C 301.246 287.415,302.309 286.944,302.527 287.079 C 302.749 287.216,302.798 287.121,302.638 286.862 C 302.469 286.588,302.607 286.400,302.976 286.400 C 303.319 286.400,303.600 286.220,303.600 286.000 C 303.600 285.780,303.870 285.600,304.200 285.600 C 304.530 285.600,304.800 285.420,304.800 285.200 C 304.800 284.980,305.069 284.800,305.397 284.800 C 306.825 284.800,308.583 282.407,307.600 281.800 C 307.380 281.664,307.200 281.896,307.200 282.316 M84.000 284.640 C 84.000 285.333,84.222 285.600,84.800 285.600 C 85.240 285.600,85.600 285.759,85.600 285.954 C 85.600 286.149,86.275 286.619,87.100 286.999 C 87.925 287.378,88.780 287.894,89.000 288.144 C 89.590 288.817,94.056 290.877,94.330 290.603 C 94.459 290.474,94.168 290.264,93.683 290.137 C 93.197 290.011,92.800 289.748,92.800 289.553 C 92.800 289.359,92.601 289.200,92.358 289.200 C 92.115 289.200,91.170 288.705,90.258 288.100 C 89.346 287.495,88.076 286.730,87.437 286.400 C 86.797 286.070,85.762 285.323,85.137 284.740 L 84.000 283.679 84.000 284.640 M291.600 292.400 C 290.942 292.915,290.805 293.181,291.200 293.178 C 291.844 293.174,293.200 292.278,293.200 291.856 C 293.200 291.403,292.625 291.598,291.600 292.400 M97.200 292.800 C 97.200 293.020,97.470 293.200,97.800 293.200 C 98.130 293.200,98.400 293.346,98.400 293.525 C 98.400 293.704,99.030 294.098,99.800 294.400 C 100.570 294.702,101.200 295.096,101.200 295.275 C 101.200 295.454,101.481 295.600,101.824 295.600 C 102.786 295.600,102.222 295.040,100.222 294.012 C 99.220 293.496,98.400 292.923,98.400 292.737 C 98.400 292.552,98.130 292.400,97.800 292.400 C 97.470 292.400,97.200 292.580,97.200 292.800 M287.546 294.813 C 286.966 295.245,286.066 295.827,285.546 296.104 C 282.976 297.474,274.583 302.611,274.467 302.886 C 274.393 303.059,273.988 303.200,273.567 303.200 C 273.145 303.200,272.800 303.380,272.800 303.600 C 272.800 303.820,272.530 304.000,272.200 304.000 C 271.870 304.000,271.600 304.136,271.600 304.302 C 271.600 304.469,271.015 304.864,270.300 305.180 C 269.585 305.497,268.651 306.080,268.225 306.478 C 267.798 306.875,267.258 307.204,267.025 307.209 C 266.210 307.226,264.515 308.781,265.300 308.791 C 265.685 308.796,266.000 308.601,266.000 308.357 C 266.000 308.114,266.255 308.012,266.567 308.132 C 266.879 308.252,267.221 308.121,267.329 307.842 C 267.436 307.563,268.531 306.825,269.762 306.202 C 270.993 305.579,272.000 304.919,272.000 304.735 C 272.000 304.551,272.360 304.400,272.800 304.400 C 273.240 304.400,273.600 304.220,273.600 304.000 C 273.600 303.780,273.836 303.600,274.125 303.600 C 274.413 303.600,275.036 303.240,275.508 302.800 C 275.980 302.360,276.644 302.000,276.983 302.000 C 277.322 302.000,277.600 301.820,277.600 301.600 C 277.600 301.380,277.870 301.200,278.200 301.200 C 278.530 301.200,278.800 301.020,278.800 300.800 C 278.800 300.580,279.055 300.400,279.367 300.400 C 279.678 300.400,279.993 300.265,280.067 300.100 C 280.140 299.935,281.055 299.367,282.100 298.837 C 283.145 298.308,284.000 297.723,284.000 297.537 C 284.000 297.352,284.360 297.200,284.800 297.200 C 285.240 297.200,285.600 297.020,285.600 296.800 C 285.600 296.580,285.788 296.400,286.017 296.400 C 286.246 296.400,286.820 296.040,287.292 295.600 C 287.764 295.160,288.387 294.800,288.675 294.800 C 288.964 294.800,289.200 294.620,289.200 294.400 C 289.200 293.811,288.730 293.929,287.546 294.813 M102.800 296.000 C 102.800 296.220,103.094 296.400,103.453 296.400 C 103.812 296.400,104.397 296.716,104.753 297.103 C 105.109 297.489,105.895 298.060,106.500 298.370 C 107.105 298.681,107.600 299.085,107.600 299.268 C 107.600 299.450,107.960 299.600,108.400 299.600 C 108.840 299.600,109.200 299.780,109.200 300.000 C 109.200 300.220,109.560 300.400,110.000 300.400 C 110.440 300.400,110.800 300.580,110.800 300.800 C 110.800 301.020,111.070 301.200,111.400 301.200 C 111.730 301.200,112.000 301.380,112.000 301.600 C 112.000 301.820,112.270 302.000,112.600 302.000 C 112.930 302.000,113.200 302.180,113.200 302.400 C 113.200 302.620,113.470 302.800,113.800 302.800 C 114.130 302.800,114.400 302.980,114.400 303.200 C 114.400 303.420,114.726 303.600,115.125 303.600 C 115.523 303.600,116.198 303.921,116.625 304.313 C 117.051 304.705,118.033 305.324,118.806 305.687 C 119.580 306.051,120.880 306.801,121.695 307.355 C 122.510 307.908,123.277 308.200,123.398 308.003 C 123.519 307.807,122.984 307.345,122.209 306.978 C 121.434 306.610,120.800 306.149,120.800 305.954 C 120.800 305.759,120.522 305.600,120.183 305.600 C 119.844 305.600,119.211 305.269,118.777 304.864 C 118.342 304.459,117.495 303.881,116.893 303.578 C 116.292 303.276,115.322 302.707,114.738 302.314 C 114.154 301.921,113.389 301.600,113.038 301.600 C 112.687 301.600,112.400 301.440,112.400 301.244 C 112.400 301.048,111.635 300.500,110.700 300.027 C 108.039 298.678,106.612 297.826,106.467 297.500 C 106.393 297.335,106.152 297.200,105.930 297.200 C 105.708 297.200,105.069 296.840,104.509 296.400 C 103.393 295.522,102.800 295.383,102.800 296.000 M124.000 308.351 C 124.000 308.545,124.540 308.927,125.200 309.200 C 125.860 309.473,126.400 309.834,126.400 310.002 C 126.400 310.170,126.715 310.418,127.100 310.554 C 127.485 310.689,128.025 310.905,128.300 311.034 C 128.575 311.162,128.800 311.072,128.800 310.833 C 128.800 310.595,128.530 310.400,128.200 310.400 C 127.870 310.400,127.600 310.220,127.600 310.000 C 127.600 309.780,127.330 309.600,127.000 309.600 C 126.670 309.600,126.400 309.420,126.400 309.200 C 126.400 308.980,126.040 308.800,125.600 308.800 C 125.160 308.800,124.800 308.620,124.800 308.400 C 124.800 308.180,124.620 308.000,124.400 308.000 C 124.180 308.000,124.000 308.158,124.000 308.351 M263.029 309.409 C 262.605 309.729,262.363 310.096,262.490 310.224 C 262.766 310.499,264.400 309.541,264.400 309.104 C 264.400 308.645,263.888 308.759,263.029 309.409 M129.200 311.600 C 129.200 311.820,129.470 312.000,129.800 312.000 C 130.130 312.000,130.400 312.146,130.400 312.325 C 130.400 312.504,131.030 312.898,131.800 313.200 C 132.570 313.502,133.200 313.896,133.200 314.075 C 133.200 314.254,133.470 314.400,133.800 314.400 C 134.130 314.400,134.400 314.580,134.400 314.800 C 134.400 315.020,134.670 315.200,135.000 315.200 C 135.330 315.200,135.600 315.380,135.600 315.600 C 135.600 315.820,135.945 316.000,136.367 316.000 C 136.788 316.000,137.193 316.135,137.267 316.300 C 137.434 316.676,139.564 317.975,140.500 318.271 C 140.885 318.393,141.200 318.652,141.200 318.847 C 141.200 319.041,141.494 319.200,141.853 319.200 C 142.212 319.200,142.797 319.525,143.153 319.922 C 143.509 320.319,144.385 320.881,145.100 321.171 C 145.815 321.460,146.400 321.836,146.400 322.005 C 146.400 322.175,146.895 322.437,147.500 322.588 C 148.105 322.739,148.915 323.146,149.300 323.493 C 149.896 324.030,150.000 324.037,150.000 323.537 C 150.000 323.214,149.370 322.702,148.600 322.400 C 147.830 322.098,147.200 321.704,147.200 321.525 C 147.200 321.346,146.930 321.200,146.600 321.200 C 146.270 321.200,146.000 321.041,146.000 320.847 C 146.000 320.652,145.685 320.386,145.300 320.255 C 144.673 320.041,142.530 318.845,138.400 316.404 C 136.794 315.454,134.510 314.138,132.200 312.830 C 131.320 312.332,130.429 311.762,130.220 311.562 C 129.717 311.083,129.200 311.102,129.200 311.600 M259.600 311.571 C 259.600 311.775,259.375 312.000,259.100 312.071 C 258.192 312.305,253.200 315.364,253.200 315.685 C 253.200 316.213,253.807 316.039,254.625 315.278 C 255.051 314.880,255.985 314.297,256.700 313.980 C 257.415 313.664,258.000 313.269,258.000 313.102 C 258.000 312.936,258.283 312.800,258.629 312.800 C 259.235 312.800,260.400 311.898,260.400 311.429 C 260.400 311.303,260.220 311.200,260.000 311.200 C 259.780 311.200,259.600 311.367,259.600 311.571 M250.400 317.064 C 249.410 317.631,248.122 318.433,247.538 318.847 C 246.954 319.261,246.307 319.600,246.100 319.600 C 245.893 319.600,245.430 319.925,245.071 320.322 C 244.711 320.719,243.783 321.293,243.009 321.597 C 242.234 321.901,241.600 322.296,241.600 322.475 C 241.600 322.654,241.240 322.800,240.800 322.800 C 240.360 322.800,240.000 322.952,240.000 323.137 C 240.000 323.323,239.235 323.870,238.300 324.354 C 235.808 325.643,234.409 326.780,235.300 326.791 C 235.685 326.796,236.000 326.620,236.000 326.400 C 236.000 326.180,236.255 326.000,236.567 326.000 C 236.878 326.000,237.193 325.865,237.267 325.700 C 237.407 325.384,239.143 324.386,242.798 322.522 C 244.006 321.905,245.345 321.085,245.773 320.700 C 246.201 320.315,246.753 320.000,247.000 320.000 C 247.247 320.000,247.798 319.675,248.225 319.278 C 248.651 318.880,249.585 318.297,250.300 317.980 C 251.015 317.664,251.600 317.269,251.600 317.102 C 251.600 316.936,251.870 316.800,252.200 316.800 C 252.530 316.800,252.800 316.620,252.800 316.400 C 252.800 315.810,252.395 315.922,250.400 317.064 M152.000 324.666 C 152.000 325.029,153.144 326.000,153.571 326.000 C 154.337 326.000,154.019 325.412,152.997 324.938 C 152.449 324.683,152.000 324.561,152.000 324.666 M156.000 327.029 C 156.000 327.498,157.165 328.400,157.771 328.400 C 158.117 328.400,158.400 328.580,158.400 328.800 C 158.400 329.020,158.580 329.200,158.800 329.200 C 159.631 329.200,159.154 328.447,158.000 327.936 C 157.340 327.644,156.800 327.269,156.800 327.102 C 156.800 326.936,156.620 326.800,156.400 326.800 C 156.180 326.800,156.000 326.903,156.000 327.029 M232.267 327.867 C 231.781 328.353,231.990 328.779,232.600 328.545 C 232.930 328.418,233.200 328.154,233.200 327.957 C 233.200 327.538,232.649 327.484,232.267 327.867 M230.800 328.800 C 230.800 329.020,230.530 329.200,230.200 329.200 C 229.870 329.200,229.600 329.380,229.600 329.600 C 229.600 330.182,230.368 330.090,231.029 329.429 C 231.699 328.758,231.758 328.400,231.200 328.400 C 230.980 328.400,230.800 328.580,230.800 328.800 M160.000 329.613 C 160.000 329.826,160.270 330.000,160.600 330.000 C 160.930 330.000,161.200 330.180,161.200 330.400 C 161.200 330.620,161.470 330.800,161.800 330.800 C 162.130 330.800,162.400 330.980,162.400 331.200 C 162.400 331.420,162.670 331.600,163.000 331.600 C 163.330 331.600,163.600 331.780,163.600 332.000 C 163.600 332.220,163.878 332.400,164.217 332.400 C 164.556 332.400,165.220 332.760,165.692 333.200 C 166.164 333.640,166.787 334.000,167.075 334.000 C 167.364 334.000,167.600 334.180,167.600 334.400 C 167.600 334.620,167.960 334.800,168.400 334.800 C 168.840 334.800,169.200 334.980,169.200 335.200 C 169.200 335.420,169.455 335.600,169.767 335.600 C 170.078 335.600,170.393 335.735,170.467 335.900 C 170.540 336.065,171.500 336.647,172.600 337.193 C 173.700 337.739,174.891 338.504,175.247 338.893 C 175.603 339.282,176.175 339.600,176.518 339.600 C 176.862 339.600,177.434 339.891,177.790 340.248 C 178.147 340.604,178.541 340.792,178.667 340.667 C 179.008 340.325,177.752 339.200,177.029 339.200 C 176.683 339.200,176.400 339.020,176.400 338.800 C 176.400 338.580,176.130 338.400,175.800 338.400 C 175.470 338.400,175.200 338.264,175.200 338.098 C 175.200 337.931,174.615 337.541,173.900 337.230 C 173.185 336.919,172.510 336.560,172.400 336.432 C 172.187 336.185,169.898 334.884,167.612 333.712 C 166.849 333.320,165.904 332.685,165.512 332.300 C 165.121 331.915,164.592 331.600,164.338 331.600 C 164.084 331.600,163.319 331.182,162.638 330.671 C 161.137 329.544,160.000 329.088,160.000 329.613 M227.554 330.734 C 227.029 331.138,225.610 331.993,224.400 332.634 C 223.190 333.275,222.110 333.914,222.000 334.054 C 221.890 334.193,221.125 334.688,220.300 335.154 C 219.475 335.619,218.125 336.381,217.300 336.847 C 216.475 337.313,215.322 338.033,214.738 338.447 C 214.154 338.861,213.507 339.200,213.300 339.200 C 212.626 339.200,211.512 340.699,211.974 340.984 C 212.208 341.129,212.400 341.061,212.400 340.834 C 212.400 340.607,212.940 340.141,213.600 339.800 C 214.260 339.459,214.800 339.302,214.800 339.451 C 214.800 339.600,215.136 339.335,215.547 338.861 C 215.958 338.388,216.588 338.000,216.947 338.000 C 217.306 338.000,217.600 337.820,217.600 337.600 C 217.600 337.380,217.870 337.200,218.200 337.200 C 218.530 337.200,218.800 337.054,218.800 336.875 C 218.800 336.696,219.430 336.302,220.200 336.000 C 220.970 335.698,221.600 335.304,221.600 335.125 C 221.600 334.946,221.870 334.800,222.200 334.800 C 222.530 334.800,222.800 334.620,222.800 334.400 C 222.800 334.180,223.036 334.000,223.325 334.000 C 223.613 334.000,224.236 333.640,224.708 333.200 C 225.180 332.760,225.762 332.400,226.000 332.400 C 226.238 332.400,226.820 332.040,227.292 331.600 C 227.764 331.160,228.387 330.800,228.675 330.800 C 228.964 330.800,229.200 330.620,229.200 330.400 C 229.200 329.798,228.617 329.916,227.554 330.734 M179.400 341.200 C 179.536 341.420,179.917 341.600,180.247 341.600 C 180.577 341.600,180.736 341.420,180.600 341.200 C 180.464 340.980,180.083 340.800,179.753 340.800 C 179.423 340.800,179.264 340.980,179.400 341.200 M207.400 342.800 C 207.264 343.020,207.534 343.200,208.000 343.200 C 208.466 343.200,208.736 343.020,208.600 342.800 C 208.464 342.580,208.194 342.400,208.000 342.400 C 207.806 342.400,207.536 342.580,207.400 342.800 M203.000 344.400 C 202.864 344.620,203.023 344.800,203.353 344.800 C 203.683 344.800,204.064 344.620,204.200 344.400 C 204.336 344.180,204.177 344.000,203.847 344.000 C 203.517 344.000,203.136 344.180,203.000 344.400 M189.893 344.713 C 189.284 344.791,188.890 345.022,189.017 345.227 C 189.318 345.715,191.600 345.712,191.600 345.224 C 191.600 344.685,191.155 344.552,189.893 344.713 M198.864 344.712 C 197.817 345.061,198.507 345.600,200.000 345.600 C 200.880 345.600,201.600 345.440,201.600 345.245 C 201.600 344.856,199.602 344.466,198.864 344.712 M194.000 346.000 C 194.000 346.220,194.360 346.400,194.800 346.400 C 195.240 346.400,195.600 346.220,195.600 346.000 C 195.600 345.780,195.240 345.600,194.800 345.600 C 194.360 345.600,194.000 345.780,194.000 346.000 " stroke="none" fill="#d0a204" fill-rule="evenodd"></path><path id="path4" d="M124.255 36.655 C 123.675 37.235,123.200 37.955,123.200 38.255 C 123.200 38.555,123.020 38.800,122.800 38.800 C 122.580 38.800,122.400 39.520,122.400 40.400 C 122.400 41.280,122.220 42.000,122.000 42.000 C 121.778 42.000,121.600 43.059,121.600 44.376 C 121.600 45.683,121.420 46.864,121.200 47.000 C 120.980 47.136,120.800 48.306,120.800 49.600 C 120.800 50.894,120.620 52.064,120.400 52.200 C 119.797 52.572,119.891 54.905,120.500 54.690 C 120.789 54.588,120.957 53.982,120.898 53.256 C 120.843 52.565,120.978 52.000,121.198 52.000 C 121.425 52.000,121.600 50.884,121.600 49.433 C 121.600 47.818,121.775 46.808,122.072 46.709 C 122.375 46.608,122.510 45.741,122.451 44.276 C 122.395 42.893,122.524 42.000,122.779 42.000 C 123.011 42.000,123.200 41.370,123.200 40.600 C 123.200 39.830,123.380 39.200,123.600 39.200 C 123.820 39.200,124.000 38.962,124.000 38.672 C 124.000 38.073,125.787 36.400,126.427 36.400 C 126.658 36.400,126.736 36.220,126.600 36.000 C 126.181 35.322,125.357 35.553,124.255 36.655 M127.800 36.000 C 127.664 36.220,127.759 36.400,128.012 36.400 C 129.411 36.400,134.400 43.420,134.400 45.389 C 134.400 45.725,134.580 46.000,134.800 46.000 C 135.020 46.000,135.200 46.360,135.200 46.800 C 135.200 47.240,135.338 47.600,135.506 47.600 C 135.674 47.600,136.134 48.345,136.529 49.257 C 137.052 50.464,137.366 50.794,137.688 50.472 C 138.114 50.046,134.279 41.605,133.505 41.267 C 133.337 41.193,133.200 40.788,133.200 40.367 C 133.200 39.945,133.065 39.596,132.900 39.591 C 132.735 39.585,132.070 38.865,131.423 37.991 C 130.776 37.116,130.011 36.400,129.723 36.400 C 129.435 36.400,129.200 36.220,129.200 36.000 C 129.200 35.780,128.941 35.600,128.624 35.600 C 128.307 35.600,127.936 35.780,127.800 36.000 M137.762 50.861 C 137.606 51.114,137.737 51.519,138.053 51.761 C 138.370 52.002,138.564 52.515,138.485 52.900 C 138.337 53.620,138.983 53.875,139.370 53.249 C 139.570 52.925,138.528 50.400,138.194 50.400 C 138.113 50.400,137.919 50.607,137.762 50.861 M139.200 54.376 C 139.200 54.803,139.380 55.264,139.600 55.400 C 139.820 55.536,140.000 55.997,140.000 56.424 C 140.000 56.851,140.146 57.200,140.325 57.200 C 140.504 57.200,140.898 57.830,141.200 58.600 C 141.502 59.370,141.896 60.000,142.075 60.000 C 142.254 60.000,142.400 60.360,142.400 60.800 C 142.400 61.240,142.580 61.600,142.800 61.600 C 143.020 61.600,143.200 61.960,143.200 62.400 C 143.200 62.840,143.380 63.200,143.600 63.200 C 143.820 63.200,144.000 63.445,144.000 63.745 C 144.000 64.044,144.720 65.689,145.600 67.400 C 146.480 69.111,147.200 70.756,147.200 71.055 C 147.200 71.355,147.380 71.600,147.600 71.600 C 147.820 71.600,148.000 71.870,148.000 72.200 C 148.000 72.530,148.174 72.800,148.387 72.800 C 148.601 72.800,148.672 73.068,148.546 73.397 C 148.415 73.737,148.592 74.099,148.956 74.239 C 149.308 74.373,149.510 74.623,149.405 74.793 C 149.300 74.963,150.651 77.953,152.407 81.438 C 154.163 84.924,155.600 88.006,155.600 88.288 C 155.600 88.569,155.780 88.800,156.000 88.800 C 156.220 88.800,156.400 89.160,156.400 89.600 C 156.400 90.040,156.546 90.400,156.725 90.400 C 156.904 90.400,157.298 91.030,157.600 91.800 C 157.902 92.570,158.296 93.200,158.475 93.200 C 158.654 93.200,158.800 93.560,158.800 94.000 C 158.800 94.440,158.980 94.800,159.200 94.800 C 159.420 94.800,159.600 95.149,159.600 95.576 C 159.600 96.003,159.780 96.464,160.000 96.600 C 160.220 96.736,160.400 97.197,160.400 97.624 C 160.400 98.051,160.580 98.400,160.800 98.400 C 161.020 98.400,161.200 98.760,161.200 99.200 C 161.200 99.640,161.380 100.000,161.600 100.000 C 161.820 100.000,162.000 100.255,162.000 100.567 C 162.000 100.878,162.135 101.193,162.300 101.267 C 162.732 101.459,164.400 104.772,164.400 105.438 C 164.400 105.747,164.580 106.000,164.800 106.000 C 165.020 106.000,165.200 106.275,165.200 106.611 C 165.200 106.948,165.785 108.322,166.500 109.666 C 167.215 111.010,168.097 112.670,168.461 113.355 C 168.824 114.040,169.062 114.662,168.989 114.738 C 168.916 114.814,169.204 115.495,169.628 116.250 C 170.053 117.006,170.400 117.889,170.400 118.212 C 170.400 118.535,170.545 118.800,170.723 118.800 C 171.013 118.800,171.407 118.000,172.940 114.300 C 173.190 113.695,173.531 113.200,173.698 113.200 C 173.864 113.200,174.000 112.750,174.000 112.200 C 174.000 111.650,174.180 111.200,174.400 111.200 C 174.620 111.200,174.800 110.840,174.800 110.400 C 174.800 109.960,174.980 109.600,175.200 109.600 C 175.420 109.600,175.600 109.161,175.600 108.624 C 175.600 108.087,175.780 107.536,176.000 107.400 C 176.220 107.264,176.400 106.803,176.400 106.376 C 176.400 105.949,176.580 105.600,176.800 105.600 C 177.020 105.600,177.200 105.330,177.200 105.000 C 177.200 104.670,177.380 104.400,177.600 104.400 C 177.820 104.400,178.000 103.845,178.000 103.167 C 178.000 102.465,177.815 101.995,177.570 102.077 C 177.334 102.156,177.190 102.306,177.252 102.410 C 177.313 102.514,176.944 103.410,176.432 104.400 C 175.919 105.390,175.342 106.513,175.150 106.895 C 174.957 107.277,174.800 107.952,174.800 108.395 C 174.800 108.838,174.665 109.201,174.500 109.203 C 174.141 109.207,173.200 111.144,173.200 111.880 C 173.200 112.166,173.020 112.400,172.800 112.400 C 172.580 112.400,172.400 112.850,172.400 113.400 C 172.400 113.950,172.241 114.400,172.047 114.400 C 171.852 114.400,171.593 114.784,171.470 115.252 C 171.162 116.432,170.485 115.677,169.123 112.634 C 168.541 111.332,167.780 109.935,167.432 109.529 C 167.084 109.123,166.800 108.610,166.800 108.390 C 166.800 108.170,166.639 107.677,166.442 107.295 C 166.245 106.913,165.481 105.340,164.744 103.800 C 164.007 102.260,163.268 100.940,163.102 100.867 C 162.936 100.793,162.800 100.388,162.800 99.967 C 162.800 99.545,162.620 99.200,162.400 99.200 C 162.180 99.200,162.000 98.840,162.000 98.400 C 162.000 97.960,161.820 97.600,161.600 97.600 C 161.380 97.600,161.200 97.240,161.200 96.800 C 161.200 96.360,161.020 96.000,160.800 96.000 C 160.580 96.000,160.400 95.640,160.400 95.200 C 160.400 94.760,160.220 94.400,160.000 94.400 C 159.780 94.400,159.600 94.040,159.600 93.600 C 159.600 93.160,159.420 92.800,159.200 92.800 C 158.980 92.800,158.800 92.462,158.800 92.049 C 158.800 91.636,158.532 91.076,158.204 90.804 C 157.877 90.532,157.707 90.150,157.828 89.955 C 157.949 89.760,157.846 89.600,157.600 89.600 C 157.354 89.600,157.255 89.435,157.380 89.232 C 157.505 89.030,157.323 88.580,156.975 88.232 C 156.627 87.885,156.454 87.600,156.589 87.600 C 156.724 87.600,155.927 85.832,154.818 83.672 C 153.708 81.512,152.800 79.532,152.800 79.272 C 152.800 79.012,152.620 78.800,152.400 78.800 C 152.180 78.800,152.000 78.440,152.000 78.000 C 152.000 77.560,151.820 77.200,151.600 77.200 C 151.380 77.200,151.200 76.840,151.200 76.400 C 151.200 75.960,151.020 75.600,150.800 75.600 C 150.580 75.600,150.400 75.317,150.400 74.971 C 150.400 74.626,150.128 74.071,149.796 73.739 C 149.464 73.407,149.295 72.970,149.420 72.768 C 149.545 72.565,149.457 72.400,149.224 72.400 C 148.991 72.400,148.800 72.040,148.800 71.600 C 148.800 71.160,148.620 70.800,148.400 70.800 C 148.180 70.800,148.000 70.440,148.000 70.000 C 148.000 69.560,147.820 69.200,147.600 69.200 C 147.380 69.200,147.200 68.840,147.200 68.400 C 147.200 67.960,147.020 67.600,146.800 67.600 C 146.580 67.600,146.400 67.240,146.400 66.800 C 146.400 66.360,146.220 66.000,146.000 66.000 C 145.780 66.000,145.600 65.640,145.600 65.200 C 145.600 64.760,145.420 64.400,145.200 64.400 C 144.980 64.400,144.800 64.130,144.800 63.800 C 144.800 63.470,144.620 63.200,144.400 63.200 C 144.180 63.200,144.000 62.966,144.000 62.680 C 144.000 61.944,143.059 60.007,142.700 60.003 C 142.535 60.001,142.400 59.640,142.400 59.200 C 142.400 58.760,142.220 58.400,142.000 58.400 C 141.780 58.400,141.600 58.135,141.600 57.811 C 141.600 57.006,139.918 53.600,139.520 53.600 C 139.344 53.600,139.200 53.949,139.200 54.376 M119.478 55.900 C 119.138 56.500,119.411 59.800,119.800 59.800 C 120.020 59.800,120.160 59.215,120.112 58.500 C 120.064 57.785,120.199 57.200,120.412 57.200 C 120.625 57.200,120.800 56.840,120.800 56.400 C 120.800 55.636,119.833 55.271,119.478 55.900 M118.400 63.176 C 118.400 64.483,118.220 65.664,118.000 65.800 C 117.780 65.936,117.600 67.106,117.600 68.400 C 117.600 69.694,117.420 70.864,117.200 71.000 C 116.704 71.306,116.666 73.600,117.157 73.600 C 117.678 73.600,118.015 72.504,117.726 71.750 C 117.577 71.363,117.737 70.955,118.123 70.739 C 118.631 70.455,118.739 69.874,118.630 68.014 C 118.525 66.214,118.631 65.597,119.078 65.426 C 119.508 65.261,119.591 64.868,119.389 63.950 C 119.204 63.106,119.282 62.596,119.632 62.381 C 120.054 62.120,120.052 61.945,119.625 61.430 C 118.701 60.317,118.400 60.746,118.400 63.176 M116.800 75.000 C 116.800 75.676,116.983 76.006,117.300 75.900 C 117.575 75.808,117.800 75.403,117.800 75.000 C 117.800 74.597,117.575 74.192,117.300 74.100 C 116.983 73.994,116.800 74.324,116.800 75.000 M116.000 77.800 C 116.000 78.570,116.168 79.200,116.373 79.200 C 116.894 79.200,117.269 77.845,116.966 77.056 C 116.533 75.928,116.000 76.338,116.000 77.800 M190.340 79.975 C 187.567 81.045,184.000 85.244,184.000 87.438 C 184.000 87.747,183.820 88.000,183.600 88.000 C 183.380 88.000,183.200 88.360,183.200 88.800 C 183.200 89.240,183.020 89.600,182.800 89.600 C 182.580 89.600,182.400 90.125,182.400 90.767 C 182.400 91.408,182.265 91.993,182.100 92.067 C 181.771 92.213,179.616 96.577,178.775 98.800 C 178.484 99.570,178.074 100.317,177.864 100.460 C 177.399 100.777,177.814 102.000,178.387 102.000 C 178.614 102.000,178.800 101.730,178.800 101.400 C 178.800 101.070,178.980 100.800,179.200 100.800 C 179.420 100.800,179.600 100.457,179.600 100.038 C 179.600 99.619,179.934 98.584,180.342 97.738 C 182.656 92.946,183.200 91.636,183.200 90.860 C 183.200 90.387,183.380 90.000,183.600 90.000 C 183.820 90.000,184.000 89.752,184.000 89.449 C 184.000 89.146,184.268 88.676,184.596 88.404 C 184.923 88.132,185.104 87.768,184.998 87.596 C 184.414 86.652,189.562 80.657,190.611 81.060 C 190.931 81.183,191.292 81.027,191.412 80.713 C 191.650 80.092,194.000 80.212,194.000 80.845 C 194.000 81.040,194.328 81.200,194.728 81.200 C 195.838 81.200,198.540 83.720,199.628 85.770 C 200.525 87.461,201.200 88.096,201.200 87.249 C 201.200 85.241,196.952 80.270,194.907 79.884 C 194.298 79.769,193.440 79.581,193.000 79.466 C 192.560 79.352,191.363 79.581,190.340 79.975 M116.000 80.400 C 116.000 80.916,116.203 81.199,116.500 81.100 C 116.775 81.008,117.000 80.693,117.000 80.400 C 117.000 80.107,116.775 79.792,116.500 79.700 C 116.203 79.601,116.000 79.884,116.000 80.400 M115.271 82.857 C 115.342 83.596,115.580 84.155,115.800 84.100 C 116.394 83.951,116.285 81.895,115.671 81.690 C 115.288 81.563,115.178 81.883,115.271 82.857 M115.253 85.167 C 114.963 85.346,114.647 86.192,114.550 87.046 C 114.452 87.901,114.275 88.960,114.155 89.400 C 113.610 91.401,113.561 94.880,114.081 94.703 C 114.366 94.605,114.601 94.002,114.602 93.363 C 114.602 92.723,114.746 91.979,114.920 91.708 C 115.094 91.438,115.052 90.871,114.826 90.448 C 114.509 89.857,114.558 89.625,115.038 89.441 C 115.447 89.284,115.619 88.807,115.540 88.051 C 115.473 87.418,115.629 86.646,115.887 86.337 C 116.471 85.633,115.976 84.720,115.253 85.167 M201.248 87.742 C 200.856 88.214,202.637 92.653,203.598 93.600 C 203.834 93.832,204.506 95.243,205.264 97.100 C 205.556 97.815,205.931 98.400,206.098 98.400 C 206.264 98.400,206.400 98.760,206.400 99.200 C 206.400 99.640,206.580 100.000,206.800 100.000 C 207.020 100.000,207.200 100.360,207.200 100.800 C 207.200 101.240,207.380 101.600,207.600 101.600 C 207.820 101.600,208.000 101.960,208.000 102.400 C 208.000 102.840,208.180 103.200,208.400 103.200 C 208.620 103.200,208.800 103.560,208.800 104.000 C 208.800 104.440,208.980 104.800,209.200 104.800 C 209.420 104.800,209.600 105.160,209.600 105.600 C 209.600 106.040,209.780 106.400,210.000 106.400 C 210.220 106.400,210.400 106.760,210.400 107.200 C 210.400 107.640,210.580 108.000,210.800 108.000 C 211.020 108.000,211.200 108.360,211.200 108.800 C 211.200 109.240,211.380 109.600,211.600 109.600 C 211.820 109.600,212.000 109.834,212.000 110.120 C 212.000 110.856,212.941 112.793,213.300 112.797 C 213.465 112.799,213.600 113.160,213.600 113.600 C 213.600 114.040,213.780 114.400,214.000 114.400 C 214.220 114.400,214.400 114.627,214.400 114.905 C 214.400 115.183,216.290 119.173,218.600 123.772 C 220.910 128.370,222.800 132.373,222.800 132.667 C 222.800 132.960,222.935 133.201,223.100 133.201 C 223.265 133.202,223.850 134.192,224.400 135.400 C 224.950 136.608,225.535 137.598,225.700 137.599 C 225.865 137.599,226.000 137.949,226.000 138.376 C 226.000 138.803,226.180 139.264,226.400 139.400 C 226.620 139.536,226.800 140.009,226.800 140.452 C 226.800 141.182,226.858 141.199,227.426 140.632 C 227.770 140.288,227.936 139.820,227.796 139.593 C 227.655 139.366,227.697 139.230,227.887 139.290 C 228.311 139.424,239.649 128.182,239.371 127.904 C 239.263 127.796,236.692 130.203,233.659 133.254 C 228.303 138.640,226.800 139.680,226.800 138.000 C 226.800 137.560,226.664 137.200,226.498 137.200 C 226.331 137.200,225.955 136.615,225.662 135.900 C 225.368 135.185,223.612 131.540,221.758 127.800 C 219.904 124.060,218.390 120.775,218.394 120.500 C 218.397 120.225,218.220 120.000,218.000 120.000 C 217.780 120.000,217.600 119.640,217.600 119.200 C 217.600 118.760,217.420 118.400,217.200 118.400 C 216.980 118.400,216.800 118.040,216.800 117.600 C 216.800 117.160,216.620 116.800,216.400 116.800 C 216.180 116.800,216.000 116.530,216.000 116.200 C 216.000 115.870,215.820 115.600,215.600 115.600 C 215.380 115.600,215.200 115.418,215.200 115.196 C 215.200 114.587,213.485 111.020,213.119 110.867 C 212.943 110.793,212.800 110.388,212.800 109.967 C 212.800 109.545,212.620 109.200,212.400 109.200 C 212.180 109.200,212.000 108.840,212.000 108.400 C 212.000 107.960,211.865 107.599,211.700 107.597 C 211.341 107.593,210.400 105.656,210.400 104.920 C 210.400 104.634,210.220 104.400,210.000 104.400 C 209.780 104.400,209.600 104.040,209.600 103.600 C 209.600 103.160,209.420 102.800,209.200 102.800 C 208.980 102.800,208.800 102.555,208.800 102.256 C 208.800 101.957,207.810 99.763,206.600 97.382 C 205.390 95.001,204.400 92.815,204.400 92.526 C 204.400 92.237,204.220 92.000,204.000 92.000 C 203.780 92.000,203.600 91.640,203.600 91.200 C 203.600 90.760,203.420 90.400,203.200 90.400 C 202.980 90.400,202.800 90.117,202.800 89.771 C 202.800 89.426,202.528 88.871,202.196 88.539 C 201.864 88.207,201.695 87.770,201.820 87.568 C 202.168 87.005,201.756 87.131,201.248 87.742 M113.078 95.500 C 112.581 96.384,112.817 100.000,113.372 100.000 C 113.823 100.000,113.956 99.447,113.947 97.600 C 113.937 95.476,113.579 94.610,113.078 95.500 M269.600 100.000 C 269.155 100.288,269.393 100.389,270.524 100.394 C 271.439 100.398,271.948 100.240,271.800 100.000 C 271.488 99.494,270.382 99.494,269.600 100.000 M112.210 100.900 C 112.062 101.345,111.952 102.245,111.517 106.561 C 111.445 107.273,111.612 107.795,111.950 107.911 C 112.368 108.055,112.459 107.753,112.330 106.650 C 112.218 105.695,112.325 105.200,112.640 105.200 C 112.960 105.200,113.120 104.399,113.120 102.800 C 113.120 100.633,112.634 99.618,112.210 100.900 M267.400 100.800 C 267.264 101.020,267.523 101.200,267.976 101.200 C 268.429 101.200,268.800 101.020,268.800 100.800 C 268.800 100.580,268.541 100.400,268.224 100.400 C 267.907 100.400,267.536 100.580,267.400 100.800 M264.156 102.898 C 261.598 105.119,261.099 105.600,261.353 105.600 C 261.469 105.600,260.267 106.915,258.682 108.522 C 257.097 110.130,255.757 111.421,255.704 111.393 C 255.455 111.258,244.986 121.837,245.108 122.100 C 245.185 122.265,244.937 122.400,244.557 122.400 C 244.177 122.400,243.968 122.501,244.091 122.625 C 244.215 122.748,243.234 123.918,241.911 125.225 C 240.588 126.531,239.713 127.600,239.967 127.600 C 240.220 127.600,241.546 126.417,242.914 124.970 C 245.704 122.019,253.450 114.256,258.477 109.372 C 260.305 107.597,262.430 105.396,263.200 104.481 C 263.970 103.566,264.825 102.814,265.100 102.809 C 265.375 102.804,265.600 102.620,265.600 102.400 C 265.600 102.180,265.870 102.000,266.200 102.000 C 266.530 102.000,266.800 101.820,266.800 101.600 C 266.800 100.859,266.122 101.192,264.156 102.898 M274.400 101.429 C 274.400 101.853,275.636 102.897,275.867 102.667 C 275.992 102.541,275.817 102.160,275.476 101.819 C 274.841 101.184,274.400 101.024,274.400 101.429 M276.000 104.000 C 276.000 104.220,276.180 104.400,276.400 104.400 C 276.620 104.400,276.800 104.940,276.800 105.600 C 276.800 106.260,276.980 106.800,277.200 106.800 C 277.775 106.800,277.669 105.125,277.043 104.300 C 276.452 103.521,276.000 103.391,276.000 104.000 M277.600 108.176 C 277.600 108.739,277.780 109.200,278.000 109.200 C 278.220 109.200,278.400 108.851,278.400 108.424 C 278.400 107.997,278.220 107.536,278.000 107.400 C 277.773 107.260,277.600 107.596,277.600 108.176 M111.442 109.035 C 111.059 110.034,111.155 110.400,111.800 110.400 C 112.130 110.400,112.400 110.051,112.400 109.624 C 112.400 108.618,111.754 108.221,111.442 109.035 M110.554 111.377 C 110.257 112.148,110.504 113.223,111.000 113.321 C 111.220 113.365,111.456 112.815,111.525 112.100 C 111.652 110.785,110.974 110.281,110.554 111.377 M278.400 112.776 C 278.400 113.449,278.580 114.000,278.800 114.000 C 279.020 114.000,279.200 113.561,279.200 113.024 C 279.200 112.487,279.020 111.936,278.800 111.800 C 278.567 111.656,278.400 112.063,278.400 112.776 M110.275 114.258 C 109.709 114.825,110.029 115.600,110.829 115.600 C 111.389 115.600,111.617 115.383,111.529 114.933 C 111.387 114.197,110.704 113.830,110.275 114.258 M109.948 116.100 C 109.919 116.155,109.857 116.650,109.809 117.200 C 109.761 117.750,109.602 118.650,109.455 119.200 C 109.308 119.750,109.139 121.046,109.081 122.080 C 109.022 123.114,108.845 124.089,108.687 124.246 C 108.529 124.404,108.400 125.573,108.400 126.843 C 108.400 128.113,108.220 129.264,108.000 129.400 C 107.780 129.536,107.600 130.717,107.600 132.024 C 107.600 133.341,107.778 134.400,108.000 134.400 C 108.226 134.400,108.400 133.267,108.400 131.800 C 108.400 130.333,108.574 129.200,108.800 129.200 C 109.026 129.200,109.200 128.067,109.200 126.600 C 109.200 125.010,109.367 124.000,109.631 124.000 C 109.883 124.000,110.009 123.392,109.935 122.532 C 109.858 121.643,109.998 121.001,110.290 120.903 C 110.664 120.779,110.663 120.560,110.286 119.919 C 109.902 119.269,109.905 119.057,110.300 118.914 C 110.891 118.701,110.983 116.000,110.400 116.000 C 110.180 116.000,109.977 116.045,109.948 116.100 M279.200 117.576 C 279.200 118.249,279.380 118.800,279.600 118.800 C 279.820 118.800,280.000 118.361,280.000 117.824 C 280.000 117.287,279.820 116.736,279.600 116.600 C 279.367 116.456,279.200 116.863,279.200 117.576 M280.000 122.600 C 280.000 123.150,280.180 123.600,280.400 123.600 C 280.620 123.600,280.800 123.150,280.800 122.600 C 280.800 122.050,280.620 121.600,280.400 121.600 C 280.180 121.600,280.000 122.050,280.000 122.600 M280.800 126.776 C 280.800 127.889,280.981 128.800,281.203 128.800 C 281.682 128.800,281.619 125.259,281.135 124.960 C 280.951 124.846,280.800 125.663,280.800 126.776 M281.661 131.600 C 281.653 132.700,281.816 133.600,282.023 133.600 C 282.230 133.600,282.400 132.700,282.400 131.600 C 282.400 130.500,282.237 129.600,282.038 129.600 C 281.840 129.600,281.670 130.500,281.661 131.600 M282.400 134.976 C 282.400 135.539,282.580 136.000,282.800 136.000 C 283.020 136.000,283.200 135.651,283.200 135.224 C 283.200 134.797,283.020 134.336,282.800 134.200 C 282.573 134.060,282.400 134.396,282.400 134.976 M106.800 137.176 C 106.800 138.483,106.620 139.664,106.400 139.800 C 106.180 139.936,106.000 140.667,106.000 141.424 C 106.000 142.181,106.180 142.800,106.400 142.800 C 106.620 142.800,106.800 142.170,106.800 141.400 C 106.800 140.630,106.964 140.000,107.165 140.000 C 107.366 140.000,107.539 138.830,107.550 137.400 C 107.561 135.970,107.397 134.800,107.185 134.800 C 106.973 134.800,106.800 135.869,106.800 137.176 M283.200 139.976 C 283.200 140.649,283.380 141.200,283.600 141.200 C 283.820 141.200,284.000 140.761,284.000 140.224 C 284.000 139.687,283.820 139.136,283.600 139.000 C 283.367 138.856,283.200 139.263,283.200 139.976 M105.776 143.906 C 105.110 144.368,105.007 148.133,105.667 147.901 C 105.991 147.787,106.160 147.219,106.098 146.456 C 106.043 145.765,106.178 145.200,106.398 145.200 C 106.619 145.200,106.800 144.840,106.800 144.400 C 106.800 143.563,106.488 143.412,105.776 143.906 M284.000 144.976 C 284.000 145.539,284.180 146.000,284.400 146.000 C 284.620 146.000,284.800 145.651,284.800 145.224 C 284.800 144.797,284.620 144.336,284.400 144.200 C 284.173 144.060,284.000 144.396,284.000 144.976 M104.400 150.833 C 104.400 152.608,104.535 153.219,104.900 153.090 C 105.197 152.985,105.355 152.375,105.289 151.587 C 105.228 150.858,105.392 150.128,105.654 149.967 C 106.006 149.749,105.964 149.507,105.493 149.036 C 104.507 148.050,104.400 148.226,104.400 150.833 M284.800 149.800 C 284.800 150.350,284.980 150.800,285.200 150.800 C 285.420 150.800,285.600 150.350,285.600 149.800 C 285.600 149.250,285.420 148.800,285.200 148.800 C 284.980 148.800,284.800 149.250,284.800 149.800 M285.628 154.100 C 285.613 155.145,285.780 156.000,286.000 156.000 C 286.480 156.000,286.480 154.118,286.000 153.000 C 285.741 152.398,285.649 152.670,285.628 154.100 M103.600 156.176 C 103.600 157.593,103.430 158.858,103.223 158.986 C 103.016 159.114,102.853 160.120,102.861 161.222 C 102.870 162.324,102.693 163.448,102.467 163.719 C 102.242 163.991,102.057 165.286,102.057 166.597 C 102.057 167.937,101.869 169.044,101.629 169.124 C 101.393 169.202,101.200 169.897,101.200 170.667 C 101.200 171.614,101.362 172.009,101.700 171.890 C 101.975 171.792,102.163 171.216,102.118 170.609 C 102.073 170.003,102.253 169.289,102.518 169.024 C 102.783 168.759,102.993 167.565,102.984 166.371 C 102.975 165.177,103.170 163.992,103.417 163.738 C 103.664 163.484,103.831 162.270,103.789 161.041 C 103.744 159.761,103.905 158.644,104.166 158.428 C 104.532 158.125,104.706 155.362,104.452 153.900 C 104.208 152.496,103.600 154.121,103.600 156.176 M286.400 158.733 C 286.400 159.870,286.582 160.800,286.804 160.800 C 287.231 160.800,287.097 157.363,286.653 156.919 C 286.514 156.780,286.400 157.597,286.400 158.733 M287.292 163.605 C 287.292 164.702,287.452 165.600,287.646 165.600 C 287.841 165.600,288.000 164.801,288.000 163.824 C 288.000 162.847,287.841 161.949,287.646 161.829 C 287.452 161.708,287.292 162.508,287.292 163.605 M288.006 167.076 C 288.003 167.778,288.180 168.464,288.400 168.600 C 288.913 168.917,288.913 167.193,288.400 166.400 C 288.105 165.943,288.011 166.105,288.006 167.076 M288.806 171.900 C 288.803 172.615,288.980 173.200,289.200 173.200 C 289.708 173.200,289.708 171.986,289.200 171.200 C 288.906 170.745,288.811 170.914,288.806 171.900 M100.782 172.900 C 100.364 175.229,100.403 177.265,100.863 177.109 C 101.158 177.008,101.400 176.373,101.400 175.698 C 101.400 175.022,101.535 174.334,101.700 174.168 C 102.215 173.651,102.028 172.800,101.400 172.800 C 101.070 172.800,100.792 172.845,100.782 172.900 M289.404 176.793 C 289.109 177.271,289.483 178.000,290.024 178.000 C 290.510 178.000,290.513 176.917,290.028 176.617 C 289.823 176.491,289.542 176.570,289.404 176.793 M99.957 177.651 C 99.933 177.733,99.838 178.877,99.744 180.193 C 99.651 181.508,99.401 182.759,99.187 182.973 C 98.974 183.186,98.800 184.393,98.800 185.656 C 98.800 186.919,98.620 188.064,98.400 188.200 C 98.180 188.336,98.000 189.506,98.000 190.800 C 98.000 192.094,97.827 193.260,97.615 193.391 C 97.404 193.521,97.242 194.590,97.256 195.764 C 97.270 196.939,97.108 198.238,96.896 198.650 C 96.522 199.376,96.177 201.170,95.731 204.700 C 95.551 206.124,95.628 206.400,96.204 206.400 C 96.751 206.400,96.852 206.136,96.701 205.104 C 96.570 204.215,96.708 203.663,97.140 203.347 C 97.670 202.959,97.685 202.785,97.236 202.243 C 96.809 201.729,96.802 201.480,97.198 201.002 C 97.471 200.674,97.610 199.963,97.506 199.422 C 97.399 198.859,97.528 198.360,97.809 198.252 C 98.131 198.128,98.283 197.225,98.250 195.636 C 98.218 194.101,98.373 193.142,98.671 193.028 C 98.976 192.911,99.111 191.978,99.053 190.380 C 98.994 188.737,99.127 187.850,99.451 187.725 C 99.772 187.602,99.909 186.733,99.853 185.180 C 99.791 183.467,99.921 182.762,100.328 182.606 C 100.734 182.450,100.816 182.009,100.626 180.996 C 100.462 180.125,100.521 179.600,100.782 179.600 C 101.404 179.600,101.287 178.570,100.600 178.000 C 100.270 177.726,99.981 177.569,99.957 177.651 M290.301 180.800 C 290.112 182.111,290.199 182.759,290.621 183.186 C 291.303 183.876,291.357 183.291,290.857 180.600 L 290.559 179.000 290.301 180.800 M290.954 186.000 C 290.954 187.100,291.099 188.000,291.277 188.000 C 291.455 188.000,291.600 187.100,291.600 186.000 C 291.600 184.900,291.455 184.000,291.277 184.000 C 291.099 184.000,290.954 184.900,290.954 186.000 M291.600 189.576 C 291.600 190.003,291.780 190.464,292.000 190.600 C 292.227 190.740,292.400 190.404,292.400 189.824 C 292.400 189.261,292.220 188.800,292.000 188.800 C 291.780 188.800,291.600 189.149,291.600 189.576 M291.600 192.200 C 291.600 192.530,291.780 192.800,292.000 192.800 C 292.220 192.800,292.400 192.530,292.400 192.200 C 292.400 191.870,292.220 191.600,292.000 191.600 C 291.780 191.600,291.600 191.870,291.600 192.200 M292.400 194.600 C 292.400 195.150,292.580 195.600,292.800 195.600 C 293.020 195.600,293.200 195.150,293.200 194.600 C 293.200 194.050,293.020 193.600,292.800 193.600 C 292.580 193.600,292.400 194.050,292.400 194.600 M293.200 199.176 C 293.200 199.849,293.380 200.400,293.600 200.400 C 293.820 200.400,294.000 199.961,294.000 199.424 C 294.000 198.887,293.820 198.336,293.600 198.200 C 293.367 198.056,293.200 198.463,293.200 199.176 M294.000 203.976 C 294.000 204.623,294.180 205.264,294.400 205.400 C 294.638 205.547,294.800 205.071,294.800 204.224 C 294.800 203.441,294.620 202.800,294.400 202.800 C 294.180 202.800,294.000 203.329,294.000 203.976 M294.800 208.376 C 294.800 209.489,294.980 210.400,295.200 210.400 C 295.420 210.400,295.600 209.601,295.600 208.624 C 295.600 207.647,295.420 206.736,295.200 206.600 C 294.953 206.448,294.800 207.129,294.800 208.376 M95.182 207.038 C 95.172 207.237,95.067 208.345,94.949 209.500 C 94.767 211.276,94.836 211.600,95.397 211.600 C 95.914 211.600,96.034 211.285,95.939 210.180 C 95.868 209.352,96.026 208.631,96.318 208.451 C 96.694 208.218,96.617 207.958,96.009 207.409 C 95.564 207.006,95.192 206.839,95.182 207.038 M295.606 212.900 C 295.603 214.171,295.779 215.200,296.000 215.200 C 296.512 215.200,296.512 211.992,296.000 211.200 C 295.725 210.774,295.610 211.267,295.606 212.900 M94.371 212.700 C 94.181 214.704,93.953 216.383,93.759 217.200 C 93.629 217.750,93.449 219.045,93.360 220.078 C 93.270 221.111,93.046 222.371,92.862 222.878 C 92.678 223.385,92.557 224.664,92.594 225.719 C 92.631 226.775,92.513 227.730,92.331 227.843 C 91.859 228.135,91.920 230.400,92.400 230.400 C 92.620 230.400,92.800 229.770,92.800 229.000 C 92.800 228.230,92.980 227.600,93.200 227.600 C 93.781 227.600,93.692 225.704,93.100 225.465 C 92.700 225.304,92.700 225.257,93.100 225.232 C 93.399 225.213,93.600 224.636,93.600 223.800 C 93.600 223.030,93.780 222.400,94.000 222.400 C 94.582 222.400,94.491 220.103,93.900 219.865 C 93.500 219.704,93.500 219.657,93.900 219.632 C 94.182 219.614,94.400 219.076,94.400 218.400 C 94.400 217.740,94.571 217.200,94.779 217.200 C 94.988 217.200,95.153 216.120,95.147 214.800 C 95.138 212.937,94.511 211.237,94.371 212.700 M296.406 216.476 C 296.409 216.984,296.587 217.670,296.800 218.000 C 297.095 218.457,297.189 218.295,297.194 217.324 C 297.197 216.622,297.020 215.936,296.800 215.800 C 296.577 215.662,296.403 215.961,296.406 216.476 M296.400 219.400 C 296.400 219.730,296.580 220.000,296.800 220.000 C 297.020 220.000,297.200 219.730,297.200 219.400 C 297.200 219.070,297.020 218.800,296.800 218.800 C 296.580 218.800,296.400 219.070,296.400 219.400 M297.200 221.800 C 297.200 222.350,297.380 222.800,297.600 222.800 C 297.820 222.800,298.000 222.350,298.000 221.800 C 298.000 221.250,297.820 220.800,297.600 220.800 C 297.380 220.800,297.200 221.250,297.200 221.800 M298.000 226.576 C 298.000 227.113,298.180 227.664,298.400 227.800 C 298.633 227.944,298.800 227.537,298.800 226.824 C 298.800 226.151,298.620 225.600,298.400 225.600 C 298.180 225.600,298.000 226.039,298.000 226.576 M298.800 231.176 C 298.800 231.849,298.980 232.400,299.200 232.400 C 299.420 232.400,299.600 231.961,299.600 231.424 C 299.600 230.887,299.420 230.336,299.200 230.200 C 298.967 230.056,298.800 230.463,298.800 231.176 M91.433 231.458 C 91.305 231.792,91.200 232.940,91.200 234.009 C 91.200 235.078,91.020 236.064,90.800 236.200 C 90.580 236.336,90.400 237.506,90.400 238.800 C 90.400 240.094,90.220 241.264,90.000 241.400 C 89.780 241.536,89.600 242.706,89.600 244.000 C 89.600 245.294,89.420 246.464,89.200 246.600 C 88.980 246.736,88.800 247.906,88.800 249.200 C 88.800 250.494,88.633 251.656,88.429 251.782 C 88.224 251.909,88.057 253.040,88.057 254.296 C 88.057 255.565,87.867 256.644,87.629 256.724 C 87.393 256.802,87.200 257.497,87.200 258.267 C 87.200 259.212,87.362 259.611,87.700 259.494 C 87.997 259.391,88.149 258.809,88.074 258.060 C 88.004 257.358,88.137 256.800,88.374 256.800 C 88.632 256.800,88.800 255.771,88.800 254.200 C 88.800 252.733,88.974 251.600,89.200 251.600 C 89.425 251.600,89.600 250.478,89.600 249.033 C 89.600 247.622,89.778 246.407,89.996 246.333 C 90.214 246.260,90.418 245.075,90.448 243.700 C 90.479 242.325,90.661 241.200,90.852 241.200 C 91.044 241.200,91.200 240.480,91.200 239.600 C 91.200 238.720,91.380 238.000,91.600 238.000 C 92.174 238.000,92.094 236.911,91.500 236.633 C 91.100 236.447,91.100 236.353,91.500 236.167 C 91.775 236.038,92.000 235.229,92.000 234.367 C 92.000 233.505,92.180 232.800,92.400 232.800 C 93.017 232.800,92.873 231.314,92.233 231.068 C 91.921 230.948,91.561 231.124,91.433 231.458 M299.600 235.533 C 299.600 236.775,299.776 237.600,300.042 237.600 C 300.333 237.600,300.406 236.970,300.257 235.748 C 299.941 233.173,299.600 233.062,299.600 235.533 M300.406 240.300 C 300.403 241.455,300.580 242.400,300.800 242.400 C 301.312 242.400,301.312 239.592,300.800 238.800 C 300.522 238.370,300.411 238.797,300.406 240.300 M301.200 243.953 C 301.200 244.393,301.380 244.864,301.600 245.000 C 301.820 245.136,302.000 244.887,302.000 244.447 C 302.000 244.007,301.820 243.536,301.600 243.400 C 301.380 243.264,301.200 243.513,301.200 243.953 M301.200 246.600 C 301.200 246.930,301.380 247.200,301.600 247.200 C 301.820 247.200,302.000 246.930,302.000 246.600 C 302.000 246.270,301.820 246.000,301.600 246.000 C 301.380 246.000,301.200 246.270,301.200 246.600 M302.040 248.876 C 302.127 250.902,302.717 251.924,302.760 250.124 C 302.782 249.202,302.620 248.336,302.400 248.200 C 302.174 248.060,302.017 248.355,302.040 248.876 M302.800 253.776 C 302.800 254.339,302.980 254.800,303.200 254.800 C 303.420 254.800,303.600 254.451,303.600 254.024 C 303.600 253.597,303.420 253.136,303.200 253.000 C 302.973 252.860,302.800 253.196,302.800 253.776 M303.600 258.776 C 303.600 259.449,303.780 260.000,304.000 260.000 C 304.220 260.000,304.400 259.561,304.400 259.024 C 304.400 258.487,304.220 257.936,304.000 257.800 C 303.767 257.656,303.600 258.063,303.600 258.776 M87.026 260.357 C 86.900 260.561,86.900 260.996,87.026 261.323 C 87.152 261.651,87.062 262.038,86.827 262.183 C 86.206 262.567,86.274 264.911,86.900 264.690 C 87.189 264.588,87.357 263.982,87.298 263.256 C 87.243 262.565,87.378 262.000,87.598 262.000 C 88.104 262.000,88.128 260.527,87.628 260.217 C 87.423 260.091,87.152 260.154,87.026 260.357 M304.440 262.900 C 304.418 263.945,304.580 264.800,304.800 264.800 C 305.263 264.800,305.263 263.445,304.800 262.000 C 304.539 261.185,304.472 261.351,304.440 262.900 M85.903 265.862 C 85.798 266.048,85.684 267.094,85.649 268.187 C 85.615 269.279,85.410 270.350,85.193 270.567 C 84.977 270.783,84.800 271.993,84.800 273.256 C 84.800 274.519,84.620 275.664,84.400 275.800 C 84.180 275.936,84.000 277.106,84.000 278.400 C 84.000 279.694,83.820 280.864,83.600 281.000 C 83.380 281.136,83.200 282.227,83.200 283.424 C 83.200 284.621,83.380 285.600,83.600 285.600 C 83.820 285.600,84.000 285.169,84.000 284.643 C 84.000 284.116,84.283 283.577,84.630 283.444 C 85.203 283.224,85.203 283.146,84.630 282.573 C 83.815 281.758,83.834 281.212,84.700 280.568 C 85.284 280.135,85.319 279.915,84.908 279.243 C 84.577 278.700,84.552 278.353,84.832 278.180 C 85.060 278.039,85.137 277.424,85.003 276.813 C 84.833 276.042,84.935 275.634,85.335 275.480 C 85.765 275.315,85.884 274.651,85.805 272.854 C 85.725 271.044,85.843 270.392,86.281 270.224 C 86.707 270.061,86.790 269.665,86.589 268.750 C 86.399 267.885,86.482 267.397,86.857 267.164 C 87.304 266.888,87.284 266.713,86.747 266.176 C 86.388 265.817,86.008 265.676,85.903 265.862 M305.200 268.576 C 305.200 269.139,305.380 269.600,305.600 269.600 C 305.820 269.600,306.000 269.251,306.000 268.824 C 306.000 268.397,305.820 267.936,305.600 267.800 C 305.373 267.660,305.200 267.996,305.200 268.576 M306.000 271.310 C 306.000 271.883,306.187 272.468,306.416 272.610 C 306.689 272.779,306.738 272.477,306.560 271.734 C 306.192 270.201,306.000 270.056,306.000 271.310 M306.000 273.800 C 306.000 274.130,306.180 274.400,306.400 274.400 C 306.620 274.400,306.800 274.130,306.800 273.800 C 306.800 273.470,306.620 273.200,306.400 273.200 C 306.180 273.200,306.000 273.470,306.000 273.800 M306.715 275.900 C 306.583 276.394,306.650 276.907,306.864 277.040 C 307.422 277.384,307.505 277.137,307.212 276.000 C 306.956 275.005,306.954 275.004,306.715 275.900 M307.080 278.136 C 306.967 278.431,307.035 278.926,307.231 279.236 C 307.491 279.647,307.589 279.501,307.594 278.700 C 307.601 277.506,307.404 277.290,307.080 278.136 M307.355 280.574 C 307.199 280.979,307.355 281.526,307.732 281.903 C 308.320 282.492,308.356 282.449,308.162 281.381 C 308.046 280.742,307.877 280.143,307.785 280.052 C 307.694 279.960,307.500 280.195,307.355 280.574 M307.029 283.829 C 306.605 284.138,306.372 284.505,306.510 284.643 C 306.649 284.782,307.062 284.595,307.429 284.229 C 308.291 283.366,308.025 283.100,307.029 283.829 M85.200 286.400 C 86.513 287.427,87.194 287.427,86.092 286.400 C 85.620 285.960,85.001 285.604,84.717 285.609 C 84.433 285.614,84.650 285.970,85.200 286.400 M303.600 286.000 C 303.600 286.220,303.423 286.400,303.208 286.400 C 302.734 286.400,298.400 289.137,298.400 289.436 C 298.400 289.692,298.858 289.431,301.200 287.844 C 302.190 287.173,303.000 286.675,303.000 286.738 C 303.000 286.800,303.315 286.731,303.700 286.583 C 304.450 286.295,304.662 285.600,304.000 285.600 C 303.780 285.600,303.600 285.780,303.600 286.000 M87.200 287.600 C 87.200 287.820,87.365 288.000,87.567 288.000 C 87.769 288.000,88.264 288.105,88.667 288.233 C 89.338 288.446,89.334 288.412,88.624 287.833 C 87.734 287.108,87.200 287.021,87.200 287.600 M91.325 289.993 C 92.360 290.649,93.655 291.299,94.203 291.437 C 94.751 291.574,95.200 291.847,95.200 292.043 C 95.200 292.240,95.380 292.400,95.600 292.400 C 96.717 292.400,95.689 291.559,92.979 290.254 C 89.309 288.488,88.833 288.413,91.325 289.993 M296.466 290.193 C 295.348 290.809,294.509 291.600,294.973 291.600 C 295.370 291.600,298.000 290.008,298.000 289.767 C 298.000 289.495,297.462 289.644,296.466 290.193 M292.630 292.424 C 292.207 292.851,292.027 293.194,292.230 293.187 C 292.701 293.171,294.000 292.194,294.000 291.856 C 294.000 291.392,293.412 291.635,292.630 292.424 M100.400 295.166 C 100.400 295.368,100.940 295.772,101.600 296.064 C 102.260 296.356,102.800 296.731,102.800 296.898 C 102.800 297.064,103.145 297.200,103.567 297.200 C 103.988 297.200,104.414 297.425,104.512 297.700 C 104.610 297.975,104.827 298.074,104.993 297.919 C 105.397 297.543,104.220 296.400,103.429 296.400 C 103.083 296.400,102.800 296.220,102.800 296.000 C 102.800 295.780,102.440 295.600,102.000 295.600 C 101.560 295.600,101.200 295.420,101.200 295.200 C 101.200 294.980,101.020 294.800,100.800 294.800 C 100.580 294.800,100.400 294.965,100.400 295.166 M287.429 295.409 C 287.005 295.729,286.763 296.096,286.890 296.224 C 287.166 296.499,288.800 295.541,288.800 295.104 C 288.800 294.645,288.288 294.759,287.429 295.409 M283.430 298.024 C 282.433 299.029,283.106 299.012,284.400 298.000 C 285.048 297.493,285.189 297.223,284.800 297.233 C 284.470 297.241,283.854 297.597,283.430 298.024 M106.000 298.300 C 106.000 298.469,106.360 298.832,106.800 299.107 C 107.240 299.382,107.600 299.469,107.600 299.300 C 107.600 299.131,107.240 298.768,106.800 298.493 C 106.360 298.218,106.000 298.131,106.000 298.300 M280.000 300.000 C 280.000 300.220,279.730 300.400,279.400 300.400 C 279.070 300.400,278.800 300.580,278.800 300.800 C 278.800 301.339,279.256 301.284,280.100 300.643 C 280.879 300.052,281.009 299.600,280.400 299.600 C 280.180 299.600,280.000 299.780,280.000 300.000 M109.600 300.547 C 109.600 300.733,112.711 302.800,112.991 302.800 C 113.106 302.800,113.200 302.620,113.200 302.400 C 113.200 302.180,112.930 302.000,112.600 302.000 C 112.270 302.000,112.000 301.820,112.000 301.600 C 112.000 301.380,111.730 301.200,111.400 301.200 C 111.070 301.200,110.800 301.020,110.800 300.800 C 110.800 300.580,110.530 300.400,110.200 300.400 C 109.870 300.400,109.600 300.466,109.600 300.547 M275.430 302.824 C 274.433 303.829,275.106 303.812,276.400 302.800 C 277.048 302.293,277.189 302.023,276.800 302.033 C 276.470 302.041,275.854 302.397,275.430 302.824 M115.200 303.957 C 115.200 304.331,116.150 304.800,116.909 304.800 C 117.153 304.800,117.004 304.536,116.576 304.213 C 115.682 303.536,115.200 303.446,115.200 303.957 M118.389 305.978 C 118.933 306.396,119.518 306.651,119.689 306.545 C 119.860 306.439,120.000 306.522,120.000 306.730 C 120.000 306.937,120.315 307.218,120.700 307.354 C 121.085 307.489,121.670 307.713,122.000 307.850 C 123.179 308.341,121.810 307.304,119.886 306.249 C 117.645 305.021,116.989 304.902,118.389 305.978 M268.500 306.846 C 267.178 307.693,266.708 308.564,267.800 308.145 C 268.130 308.018,268.400 307.754,268.400 307.557 C 268.400 307.361,268.648 307.200,268.951 307.200 C 269.254 307.200,269.726 306.930,270.000 306.600 C 270.701 305.756,270.031 305.866,268.500 306.846 M123.200 308.332 C 123.200 308.515,123.695 308.920,124.300 309.232 C 124.905 309.545,125.749 310.115,126.175 310.500 C 126.602 310.885,127.142 311.204,127.375 311.209 C 127.609 311.214,128.250 311.570,128.800 312.000 C 129.918 312.874,130.400 312.995,130.400 312.400 C 130.400 312.180,130.130 312.000,129.800 312.000 C 129.470 312.000,129.200 311.854,129.200 311.675 C 129.200 311.496,128.570 311.102,127.800 310.800 C 127.030 310.498,126.400 310.126,126.400 309.974 C 126.400 309.822,125.860 309.473,125.200 309.200 C 124.540 308.927,124.000 308.545,124.000 308.351 C 124.000 308.158,123.820 308.000,123.600 308.000 C 123.380 308.000,123.200 308.150,123.200 308.332 M263.830 309.624 C 263.359 310.098,263.254 310.400,263.559 310.400 C 264.063 310.400,265.200 309.450,265.200 309.029 C 265.200 308.590,264.594 308.853,263.830 309.624 M262.000 310.800 C 262.000 311.020,261.717 311.200,261.371 311.200 C 260.603 311.200,259.401 312.335,259.774 312.707 C 259.922 312.856,260.169 312.802,260.322 312.588 C 260.475 312.374,261.095 311.944,261.700 311.632 C 262.790 311.070,263.171 310.400,262.400 310.400 C 262.180 310.400,262.000 310.580,262.000 310.800 M132.400 313.856 C 132.400 314.166,133.681 315.170,134.100 315.187 C 134.265 315.194,134.400 315.020,134.400 314.800 C 134.400 314.580,134.130 314.400,133.800 314.400 C 133.470 314.400,133.200 314.220,133.200 314.000 C 133.200 313.780,133.020 313.600,132.800 313.600 C 132.580 313.600,132.400 313.715,132.400 313.856 M256.222 314.124 C 255.099 314.811,253.691 316.146,254.400 315.851 C 254.730 315.713,255.315 315.489,255.700 315.354 C 256.085 315.218,256.400 314.948,256.400 314.753 C 256.400 314.559,256.670 314.400,257.000 314.400 C 257.330 314.400,257.600 314.220,257.600 314.000 C 257.600 313.489,257.199 313.525,256.222 314.124 M136.800 316.800 C 137.350 317.230,138.025 317.586,138.300 317.591 C 138.575 317.596,138.800 317.780,138.800 318.000 C 138.800 318.220,139.115 318.396,139.500 318.391 C 140.333 318.381,138.563 316.824,137.700 316.809 C 137.425 316.804,137.200 316.620,137.200 316.400 C 137.200 316.180,136.885 316.004,136.500 316.009 C 135.933 316.016,135.990 316.166,136.800 316.800 M252.800 316.400 C 252.800 316.620,252.530 316.800,252.200 316.800 C 251.870 316.800,251.600 316.980,251.600 317.200 C 251.600 317.739,252.056 317.684,252.900 317.043 C 253.679 316.452,253.809 316.000,253.200 316.000 C 252.980 316.000,252.800 316.180,252.800 316.400 M249.700 318.144 C 248.779 318.600,248.395 319.456,249.300 319.034 C 249.575 318.905,250.115 318.689,250.500 318.554 C 250.885 318.418,251.200 318.148,251.200 317.953 C 251.200 317.522,250.872 317.564,249.700 318.144 M140.403 318.700 C 140.405 318.865,141.125 319.390,142.003 319.867 C 142.881 320.343,143.600 320.646,143.600 320.538 C 143.600 320.096,142.413 319.200,141.829 319.200 C 141.483 319.200,141.200 319.020,141.200 318.800 C 141.200 318.580,141.020 318.400,140.800 318.400 C 140.580 318.400,140.401 318.535,140.403 318.700 M245.800 320.667 C 245.097 321.230,245.089 321.277,245.733 321.054 C 246.136 320.914,246.631 320.800,246.833 320.800 C 247.035 320.800,247.200 320.620,247.200 320.400 C 247.200 319.833,246.727 319.924,245.800 320.667 M144.403 321.109 C 144.405 321.269,144.855 321.608,145.403 321.862 C 145.951 322.117,146.400 322.191,146.400 322.027 C 146.400 321.863,145.950 321.523,145.400 321.273 C 144.850 321.022,144.401 320.948,144.403 321.109 M242.328 322.612 C 240.488 323.570,239.569 324.400,240.348 324.400 C 240.565 324.400,241.013 324.130,241.343 323.800 C 241.673 323.470,242.041 323.200,242.162 323.200 C 242.282 323.200,242.970 322.841,243.690 322.401 C 245.513 321.290,244.593 321.433,242.328 322.612 M148.800 323.768 C 150.010 324.546,151.210 325.186,151.467 325.191 C 151.723 325.196,152.014 325.425,152.112 325.700 C 152.210 325.975,152.427 326.074,152.593 325.919 C 152.997 325.543,151.820 324.400,151.029 324.400 C 150.683 324.400,150.400 324.190,150.400 323.933 C 150.400 323.677,150.280 323.587,150.132 323.734 C 149.985 323.881,149.580 323.753,149.232 323.448 C 148.885 323.144,148.150 322.773,147.600 322.624 C 147.030 322.470,147.545 322.961,148.800 323.768 M238.300 324.920 C 237.695 325.159,237.200 325.500,237.200 325.677 C 237.200 325.855,236.930 326.000,236.600 326.000 C 236.270 326.000,236.000 326.180,236.000 326.400 C 236.000 326.990,236.255 326.907,238.009 325.747 C 239.272 324.911,240.098 324.188,239.500 324.443 C 239.445 324.466,238.905 324.681,238.300 324.920 M153.600 326.326 C 153.600 326.505,154.320 327.036,155.200 327.506 C 156.080 327.975,156.800 328.266,156.800 328.151 C 156.800 327.699,155.622 326.800,155.029 326.800 C 154.683 326.800,154.400 326.620,154.400 326.400 C 154.400 326.180,154.220 326.000,154.000 326.000 C 153.780 326.000,153.600 326.147,153.600 326.326 M234.400 327.200 C 234.400 327.420,234.145 327.600,233.833 327.600 C 233.522 327.600,233.207 327.767,233.133 327.970 C 233.060 328.174,232.734 328.399,232.410 328.470 C 231.582 328.652,230.651 329.584,230.974 329.907 C 231.122 330.056,231.369 330.002,231.522 329.788 C 231.869 329.303,233.966 328.025,234.900 327.729 C 235.756 327.457,235.827 326.800,235.000 326.800 C 234.670 326.800,234.400 326.980,234.400 327.200 M157.600 328.751 C 157.600 328.945,158.140 329.327,158.800 329.600 C 159.460 329.873,160.000 330.255,160.000 330.449 C 160.000 330.642,160.270 330.800,160.600 330.800 C 160.930 330.800,161.200 330.620,161.200 330.400 C 161.200 330.180,160.930 330.000,160.600 330.000 C 160.270 330.000,160.000 329.820,160.000 329.600 C 160.000 329.380,159.640 329.200,159.200 329.200 C 158.760 329.200,158.400 329.020,158.400 328.800 C 158.400 328.580,158.220 328.400,158.000 328.400 C 157.780 328.400,157.600 328.558,157.600 328.751 M229.200 330.302 C 229.200 330.469,228.660 330.844,228.000 331.136 C 226.846 331.647,226.369 332.400,227.200 332.400 C 227.420 332.400,227.600 332.220,227.600 332.000 C 227.600 331.780,227.878 331.600,228.217 331.600 C 228.556 331.600,229.220 331.240,229.692 330.800 C 230.420 330.122,230.448 330.000,229.875 330.000 C 229.504 330.000,229.200 330.136,229.200 330.302 M164.000 332.800 C 164.000 333.020,164.162 333.200,164.359 333.200 C 164.557 333.200,165.903 333.920,167.352 334.800 C 170.192 336.525,170.400 336.607,170.400 336.000 C 170.400 335.780,170.130 335.600,169.800 335.600 C 169.470 335.600,169.200 335.420,169.200 335.200 C 169.200 334.980,168.840 334.800,168.400 334.800 C 167.960 334.800,167.600 334.620,167.600 334.400 C 167.600 334.180,167.364 334.000,167.075 334.000 C 166.787 334.000,166.164 333.640,165.692 333.200 C 164.766 332.338,164.000 332.156,164.000 332.800 M224.600 333.257 L 223.800 334.067 224.900 333.569 C 225.505 333.296,226.000 332.920,226.000 332.736 C 226.000 332.189,225.454 332.393,224.600 333.257 M219.700 336.144 C 219.205 336.389,218.800 336.732,218.800 336.905 C 218.800 337.079,219.340 336.941,220.000 336.600 C 220.660 336.259,221.200 335.894,221.200 335.790 C 221.200 335.521,220.739 335.630,219.700 336.144 M172.400 337.526 C 172.400 337.818,174.911 339.200,175.442 339.200 C 175.772 339.200,174.674 338.260,173.690 337.700 C 172.662 337.115,172.400 337.080,172.400 337.526 M217.600 337.600 C 217.600 337.820,217.317 338.000,216.971 338.000 C 216.387 338.000,215.200 338.896,215.200 339.338 C 215.200 339.446,215.919 339.143,216.797 338.667 C 218.327 337.836,218.849 337.200,218.000 337.200 C 217.780 337.200,217.600 337.380,217.600 337.600 M213.400 339.882 C 212.740 340.239,212.419 340.605,212.686 340.695 C 212.953 340.784,213.572 340.484,214.061 340.029 C 215.120 339.043,214.999 339.016,213.400 339.882 M176.000 339.760 C 176.000 340.127,178.937 341.619,179.351 341.463 C 179.598 341.370,179.440 341.147,179.000 340.969 C 178.560 340.791,177.962 340.410,177.671 340.122 C 177.186 339.642,176.000 339.386,176.000 339.760 M180.000 342.000 C 180.000 342.220,180.270 342.400,180.600 342.400 C 180.930 342.400,181.200 342.580,181.200 342.800 C 181.200 343.020,181.470 343.200,181.800 343.200 C 182.130 343.200,182.400 343.020,182.400 342.800 C 182.400 342.580,182.130 342.400,181.800 342.400 C 181.470 342.400,181.200 342.220,181.200 342.000 C 181.200 341.780,180.930 341.600,180.600 341.600 C 180.270 341.600,180.000 341.780,180.000 342.000 M182.803 343.500 C 182.808 343.952,184.831 344.800,185.903 344.800 C 186.431 344.800,186.738 344.624,186.600 344.400 C 186.464 344.180,185.823 344.000,185.176 344.000 C 184.529 344.000,184.000 343.820,184.000 343.600 C 184.000 343.380,183.730 343.200,183.400 343.200 C 183.070 343.200,182.801 343.335,182.803 343.500 M206.400 343.600 C 206.400 343.820,205.961 344.000,205.424 344.000 C 204.887 344.000,204.336 344.180,204.200 344.400 C 204.056 344.633,204.463 344.800,205.176 344.800 C 205.849 344.800,206.400 344.620,206.400 344.400 C 206.400 344.180,206.760 344.000,207.200 344.000 C 207.640 344.000,208.000 343.820,208.000 343.600 C 208.000 343.380,207.640 343.200,207.200 343.200 C 206.760 343.200,206.400 343.380,206.400 343.600 M187.200 345.200 C 187.200 345.420,187.661 345.600,188.224 345.600 C 188.804 345.600,189.140 345.427,189.000 345.200 C 188.864 344.980,188.403 344.800,187.976 344.800 C 187.549 344.800,187.200 344.980,187.200 345.200 M201.600 345.200 C 201.600 345.420,201.949 345.600,202.376 345.600 C 202.803 345.600,203.264 345.420,203.400 345.200 C 203.540 344.973,203.204 344.800,202.624 344.800 C 202.061 344.800,201.600 344.980,201.600 345.200 M192.000 346.000 C 192.000 346.220,192.450 346.400,193.000 346.400 C 193.550 346.400,194.000 346.220,194.000 346.000 C 194.000 345.780,193.550 345.600,193.000 345.600 C 192.450 345.600,192.000 345.780,192.000 346.000 M195.600 346.000 C 195.600 346.220,196.129 346.400,196.776 346.400 C 197.423 346.400,198.064 346.220,198.200 346.000 C 198.347 345.762,197.871 345.600,197.024 345.600 C 196.241 345.600,195.600 345.780,195.600 346.000 " stroke="none" fill="#d07e04" fill-rule="evenodd"></path></g></svg>